<?xml version="1.0" encoding="utf-8"?>
<!-- Generator: Adobe Illustrator 18.1.0, SVG Export Plug-In . SVG Version: 6.00 Build 0)  -->
<svg version="1.1" id="Layer_1" xmlns="http://www.w3.org/2000/svg" xmlns:xlink="http://www.w3.org/1999/xlink" x="0px" y="0px"
	 viewBox="-50 0 200 200" enable-background="new -50 0 200 200" xml:space="preserve">
 <defs>
    <filter id="f1" x="0" y="0">
      <feGaussianBlur in="SourceGraphic" stdDeviation="15" />
    </filter>
 </defs>
<g>
	<path d="M91.7,118.1c-2.4-3.8-7.7-6.8-12.2-6.8h-59c-4.5,0-9.8,3-12.2,6.8l-8.9,14.1c-1.4,2.2-1.6,4.3-0.6,6
		c0.9,1.7,2.9,2.7,5.4,2.7h91.5c2.5,0,4.5-0.9,5.4-2.7c0.9-1.7,0.7-3.8-0.6-6L91.7,118.1z M98,136.5c-0.3,0.5-1.1,0.8-2.3,0.8H4.2
		c-1.1,0-2-0.3-2.3-0.8s-0.1-1.4,0.5-2.4l8.9-14.1c1.7-2.7,5.9-5.1,9.2-5.1h59c3.2,0,7.4,2.3,9.2,5.1l8.9,14.1
		C98.1,135.1,98.3,136,98,136.5z"/>
	<path d="M-16.2,123.3c-3.8,0-7,3.1-7,7s3.1,7,7,7c3.8,0,7-3.1,7-7S-12.4,123.3-16.2,123.3z M-16.2,133.7c-1.9,0-3.4-1.5-3.4-3.4
		s1.5-3.4,3.4-3.4c1.9,0,3.4,1.5,3.4,3.4S-14.4,133.7-16.2,133.7z"/>
	<path d="M116.2,137.3c3.8,0,7-3.1,7-7s-3.1-7-7-7c-3.8,0-7,3.1-7,7S112.4,137.3,116.2,137.3z M116.2,126.9c1.9,0,3.4,1.5,3.4,3.4
		s-1.5,3.4-3.4,3.4c-1.9,0-3.4-1.5-3.4-3.4S114.4,126.9,116.2,126.9z"/>
	<path d="M140.8,82.3c-1.6-2.6-5.2-4.9-8.2-5.4l-9.6-1.4c-2.4-0.3-4.3,1.4-4.3,3.8v6.5L103.5,66c-3-3.9-7.5-7.3-12.6-9.7
		c0-0.6-0.1-1.2-0.3-1.8l-2.3-5.8H95l0.8,2c0.7,1.8,2.4,2.9,4.3,2.9c0,0,0,0,0,0c1.5,0,3-0.7,3.8-1.9c0.7-1.1,0.8-2.4,0.3-3.7
		l-4.6-11.6c-0.7-1.8-2.4-2.9-4.3-2.9c-1.5,0-3,0.7-3.8,1.9c-0.7,1.1-0.8,2.4-0.3,3.7l0.3,0.8H8.6l0.3-0.8c0.5-1.3,0.4-2.6-0.3-3.7
		c-0.8-1.2-2.2-1.9-3.8-1.9c-1.9,0-3.6,1.1-4.3,2.9L-4.2,48c-0.5,1.3-0.4,2.6,0.3,3.7c0.8,1.2,2.2,1.9,3.8,1.9c0,0,0,0,0,0
		c1.9,0,3.6-1.1,4.3-2.9l0.8-2h6.7l-2.3,5.8c-0.2,0.6-0.3,1.2-0.3,1.8c-5,2.5-9.6,5.9-12.6,9.7l-15.2,19.8v-6.5
		c0-2.3-1.9-4.1-4.3-3.8l-9.6,1.4c-3.1,0.4-6.7,2.8-8.2,5.4c-0.9,1.5-1.1,3.2-0.4,4.6c0.7,1.4,2.2,2.3,4,2.5l13.9,1.5
		c-0.3,0.2-0.6,0.5-0.9,0.8c-0.2,0.2-0.4,0.3-0.5,0.5c0,0-0.1,0.1-0.1,0.1l-2.2,2.2l-1,1c0,0,0,0,0,0c-0.3,0.3-0.6,0.6-0.8,0.9
		c-0.1,0.1-0.1,0.2-0.2,0.3c-0.2,0.3-0.5,0.6-0.7,0.9c0,0.1-0.1,0.1-0.1,0.2c-2,2.8-3.6,6.4-4.3,9.9l-0.2,1l0.1,0
		c-0.2,1.4-0.3,2.7-0.2,4l0.3,4.9c-3.5,1-6,4.3-6,8v32.7c0,4.6,3.8,8.4,8.4,8.4h19.7c4.6,0,8.4-3.8,8.4-8.4v-10h107.6v12.3
		c0,6.1,6.3,6.1,8.4,6.1h19.7c2.1,0,8.4,0,8.4-6.1v-35c0-3.7-2.5-7-6-8l0.3-4.9c0.1-1.3,0-2.6-0.2-4l0.1,0l-0.2-0.9
		c-0.7-3.5-2.3-7.2-4.3-10c0-0.1-0.1-0.1-0.1-0.2c-0.2-0.3-0.5-0.6-0.7-0.9c-0.1-0.1-0.1-0.2-0.2-0.3c-0.3-0.3-0.6-0.6-0.9-0.9
		c0,0,0,0,0,0l-1.7-1.6l-1.5-1.5c-0.5-0.4-1-0.9-1.5-1.3l13.9-1.5c1.9-0.2,3.3-1.1,4-2.5C141.9,85.5,141.8,83.8,140.8,82.3z
		 M-0.1,50L-0.1,50c-0.4,0-0.7-0.2-0.8-0.3c-0.1-0.1,0-0.3,0-0.4l4.6-11.6c0.2-0.4,0.5-0.6,1-0.6c0.4,0,0.7,0.2,0.8,0.3
		c0.1,0.1,0,0.3,0,0.4L0.9,49.4C0.7,49.8,0.4,50-0.1,50z M126.1,98.6c0.1,0.1,0.1,0.1,0.2,0.2c0.2,0.2,0.3,0.4,0.5,0.6
		c0,0.1,0.1,0.1,0.1,0.2c0.2,0.2,0.3,0.4,0.5,0.7c0,0,0.1,0.1,0.1,0.1c0.2,0.3,0.3,0.5,0.5,0.8c0,0,0,0,0,0c0.7,1.3,1.4,2.7,1.9,4.2
		l-26.7,3.5c-0.2,0-0.5,0-0.7,0c-0.7,0-1.6-0.2-2.2-0.9c-0.5-0.6-0.6-1.6-0.3-2.7c0.8-3.1,4-6.5,7.1-7.3l14.4-4.1
		c0.1,0.1,0.2,0.2,0.3,0.3c0.2,0.2,0.4,0.3,0.5,0.5l3.2,3.1c0,0,0.1,0.1,0.1,0.1C125.7,98.2,125.9,98.4,126.1,98.6z M86.7,54.5
		c-0.7-0.2-1.3-0.5-2-0.7l-2.1-5.2h1.7L86.7,54.5z M80.5,52.9c-1.6-0.3-3.1-0.4-4.6-0.4c-0.9,0-15.1-0.7-26.6-0.7
		c-11.4,0-24.4,0.6-25.2,0.7c-1.5,0-3,0.2-4.6,0.4l1.7-4.2h57.6L80.5,52.9z M94.4,37.4c0.1-0.1,0.4-0.3,0.8-0.3c0.5,0,0.8,0.2,1,0.6
		l4.6,11.6c0,0.1,0.1,0.3,0,0.4c-0.1,0.1-0.4,0.3-0.8,0.3c-0.5,0-0.8-0.2-1-0.6l-0.3-0.7h0l-1.1-2.8l-3.3-8.2
		C94.4,37.6,94.4,37.5,94.4,37.4z M6.5,45.1l0.7-1.6h85.7l0.4,1.1l0.2,0.5h-6.7h-9.5H22.6h-9.5H6.5z M15.6,48.7h1.7l-2.1,5.2
		c-0.7,0.2-1.3,0.4-2,0.7L15.6,48.7z M-0.6,68.2c2.7-3.5,7-6.7,11.8-8.9l0.8-0.4c1.7-0.7,3.4-1.4,5.1-1.8l0.6-0.2
		c2.2-0.6,4.4-0.9,6.4-0.9l0.1,0c0.1,0,13.4-0.7,25.1-0.7C61,55.4,75.6,56,75.8,56l0.1,0c2,0,4.2,0.3,6.4,0.9l0.7,0.2
		c1.7,0.5,3.4,1.1,5.1,1.8l0.8,0.4c4.7,2.2,9.1,5.4,11.8,8.9l12.8,16.7c-0.9-0.4-1.8-0.7-2.7-1c0,0-0.1,0-0.1,0
		c-0.4-0.1-0.7-0.2-1.1-0.3c-0.1,0-0.1,0-0.2-0.1c-0.4-0.1-0.8-0.2-1.2-0.3c-1.3-0.2-2.7-0.5-4.1-0.8c-12.2-2.1-30.4-4.3-53.6-4.3
		c-19.6,0-35.8,1.6-47.9,3.4c-4,0.6-7.6,1.2-10.7,1.8c-0.4,0.1-0.8,0.2-1.2,0.3c-0.1,0-0.2,0-0.3,0.1c-0.3,0.1-0.7,0.2-1.1,0.3
		c-0.1,0-0.1,0-0.2,0.1c-0.9,0.3-1.8,0.6-2.7,1L-0.6,68.2z M-28,101.2C-28,101.2-28,101.2-28,101.2c0.2-0.3,0.4-0.6,0.5-0.9
		c0,0,0-0.1,0.1-0.1c0.2-0.3,0.3-0.5,0.5-0.7c0,0,0.1-0.1,0.1-0.1c0.2-0.2,0.3-0.4,0.5-0.6c0,0,0.1-0.1,0.1-0.1
		c0.2-0.2,0.4-0.4,0.6-0.6c0,0,0,0,0,0l0.4-0.4l2.8-2.7c0,0,0.1-0.1,0.1-0.1c0.1-0.1,0.3-0.3,0.4-0.4c0.1-0.1,0.2-0.2,0.3-0.3
		L-7,98.1c3.1,0.9,6.3,4.2,7.1,7.3c0.3,1.1,0.2,2.1-0.3,2.7c-0.6,0.7-1.5,0.9-2.2,0.9c0,0,0,0,0,0c-0.2,0-0.5,0-0.7,0l-26.7-3.5
		C-29.4,104-28.7,102.5-28,101.2z M-38,85.2c-0.1-0.2,0-0.7,0.2-1.1c1-1.7,3.6-3.4,5.6-3.7l9.6-1.4c0.1,0,0.2,0,0.2,0.2v8.1
		l-14.5-1.6C-37.4,85.7-37.9,85.5-38,85.2z M-7.4,158.1c0,2.6-2.1,4.8-4.8,4.8h-19.7c-2.6,0-4.8-2.1-4.8-4.8v-32.7
		c0-1.8,1.1-3.5,2.6-4.2l1.2,18.2c0,0.3,0,0.5,0,0.8c0,0.1,0,0.2,0,0.3c0.2,1.9,0.9,3.4,2,4.6c0.1,0.1,0.1,0.1,0.2,0.2
		c0.1,0.1,0.3,0.2,0.4,0.3c0.1,0.1,0.2,0.2,0.3,0.2c0.1,0.1,0.3,0.2,0.4,0.3c0.1,0.1,0.2,0.2,0.4,0.3c0.1,0.1,0.2,0.1,0.3,0.2
		c0.2,0.1,0.3,0.2,0.5,0.3c0.1,0,0.2,0.1,0.3,0.1c0.2,0.1,0.4,0.2,0.6,0.3c0.1,0,0.2,0.1,0.3,0.1c0.6,0.2,1.2,0.4,1.8,0.5
		c0.2,0,0.4,0.1,0.7,0.1c0.2,0,0.3,0.1,0.5,0.1c0.2,0,0.3,0,0.5,0c0.6,0.1,1.3,0.1,2,0.1h14.4V158.1z M134.1,121.2
		c1.6,0.8,2.6,2.4,2.6,4.2v35c0,1.2,0,2.5-4.8,2.5h-19.7c-4.8,0-4.8-1.3-4.8-2.5v-12.3h14.4c7,0,11.1-3.2,11.1-8.7l0.1-0.8
		L134.1,121.2z M131,112.3l-1.7,26.4l0,0.6l0,0.1c0,3.4-2.5,5.2-7.5,5.2h-18v0H-3.8h-18c-5,0-7.5-1.7-7.5-5.2l-1.8-27
		c-0.1-1,0-2.1,0.2-3.3l27.1,3.6c0.4,0.1,0.8,0.1,1.2,0.1c0,0,0,0,0,0c2.1,0,3.9-0.8,5.1-2.3c1.2-1.5,1.6-3.6,1-5.8
		c-1.1-4.3-5.3-8.7-9.6-9.9l-11.7-3.3c1.6-1,3.2-1.9,4.8-2.7c0,0,0.1,0,0.1,0c0.4-0.2,0.9-0.4,1.3-0.6c0.1,0,0.1,0,0.2-0.1
		c0.4-0.2,0.9-0.3,1.3-0.5c0,0,0.1,0,0.1,0c0.4-0.1,0.7-0.2,1.1-0.3c0.1,0,0.2-0.1,0.3-0.1c0.4-0.1,0.8-0.2,1.1-0.3
		c2.3-0.4,5.1-0.9,8.4-1.4c11.3-1.7,28.5-3.6,49.5-3.6c22.1,0,39.6,2,51.6,4.1c1.9,0.3,3.7,0.7,5.4,1c0.4,0.1,0.7,0.2,1.1,0.3
		c0.1,0,0.2,0,0.3,0.1c0.4,0.1,0.7,0.2,1.1,0.3c0,0,0.1,0,0.1,0c0.4,0.2,0.9,0.3,1.3,0.5c0,0,0.1,0,0.1,0.1c0.4,0.2,0.9,0.4,1.3,0.6
		c0,0,0,0,0,0c1.6,0.8,3.3,1.7,4.9,2.7l-11.7,3.3c-4.3,1.2-8.5,5.6-9.6,9.9c-0.5,2.2-0.2,4.3,1,5.8c1.2,1.5,2.9,2.3,5.1,2.3
		c0,0,0,0,0,0c0.4,0,0.8,0,1.2-0.1l27.1-3.6C131,110.2,131.1,111.3,131,112.3z M138,85.2c-0.1,0.3-0.6,0.5-1.2,0.6l-14.5,1.6v-8.1
		c0-0.2,0.1-0.2,0.2-0.2c0,0,0,0,0.1,0l9.6,1.4c2,0.3,4.6,2,5.6,3.7C138,84.6,138.1,85,138,85.2z"/>
</g>
</svg>
