<?xml version="1.0" encoding="utf-8"?>
<!-- Generator: Adobe Illustrator 18.1.0, SVG Export Plug-In . SVG Version: 6.00 Build 0)  -->
<svg version="1.1" id="Layer_1" xmlns="http://www.w3.org/2000/svg" xmlns:xlink="http://www.w3.org/1999/xlink" x="0px" y="0px"
	 viewBox="0 0 100 50" enable-background="new 0 0 100 50" xml:space="preserve">
<path d="M60.5,15c-0.7-1.2-1.6-2.2-2.7-2.8c-1.1-0.7-2.3-1.1-3.8-1.4c-1.4-0.2-2.8-0.3-4.2-0.3h-7.7v7.1v6h-3.7v4.8h3.7v1.8h-3.7
	v4.8h3.7v1.3v3.4h5.5v-3.4v-1.3h7.6v-4.8h-7.6v-1.8h3.2c1.4,0,2.7-0.2,4-0.5c1.3-0.3,2.4-0.9,3.5-1.7c1-0.8,1.8-1.8,2.4-3
	c0.6-1.2,0.9-2.2,0.9-4C61.6,17.3,61.2,16.2,60.5,15z M55.3,21.2c-0.3,0.6-0.8,1.1-1.3,1.5c-0.6,0.4-1.2,0.6-1.9,0.7
	c-0.7,0.1-1.4,0.2-2.1,0.2h-2.4v-6v-2.4h2.7c0.7,0,1.4,0.1,2,0.2c0.7,0.1,1.3,0.4,1.8,0.7s0.9,0.8,1.3,1.4c0.3,0.6,0.5,0.8,0.5,1.7
	C55.8,20.2,55.7,20.5,55.3,21.2z"/>
</svg>
