<?xml version="1.0" encoding="utf-8"?>
<!-- Generator: Adobe Illustrator 18.1.0, SVG Export Plug-In . SVG Version: 6.00 Build 0)  -->
<svg version="1.1" id="Layer_1" xmlns="http://www.w3.org/2000/svg" xmlns:xlink="http://www.w3.org/1999/xlink" x="0px" y="0px"
	 viewBox="0 0 100 50" enable-background="new 0 0 100 50" xml:space="preserve">
<path id="vk-icon" d="M52,36.7c1,0,1.5-0.7,1.5-1.6c-0.1-3.3,1.2-5,3.5-2.7c2.5,2.5,3.1,4.3,6.2,4.3c1.2,0,4.3,0,5.5,0
	c4.3,0,0.5-4.3-2.6-7.1c-2.9-2.7-3-2.7-0.5-6c3.1-4,7.1-9.2,3.6-9.2c-0.7,0-0.2,0-6.8,0c-1.3,0-1.4,0.8-1.9,1.9
	c-1.7,4-4.9,9.2-6.2,8.4c-1.3-0.8-0.7-3.7-0.6-8.5c0-1.3,0-2.2-2-2.6c-5.4-1.3-10.1,1.2-8.1,1.6c2.7,0.5,2.4,5.9,1.8,8.4
	c-1.1,4.4-5.2-3.5-6.9-7.4c-0.4-0.9-0.5-1.7-2-1.7c-0.8,0-4.4,0-5.6,0c-1.1,0-1.6,0.5-1.2,1.5s4.7,10.6,9.8,16.1
	C44.1,37.2,48.7,36.7,52,36.7z"/>
</svg>
