<?xml version="1.0" encoding="utf-8"?>
<!-- Generator: Adobe Illustrator 18.1.0, SVG Export Plug-In . SVG Version: 6.00 Build 0)  -->
<svg version="1.1" id="Layer_1" xmlns="http://www.w3.org/2000/svg" xmlns:xlink="http://www.w3.org/1999/xlink" x="0px" y="0px"
	 viewBox="0 0 100 50" enable-background="new 0 0 100 50" xml:space="preserve">
<g>
	<path d="M50,25.6c5,0,9-4,9-9c0-5-4-9-9-9c-5,0-9,4-9,9C41,21.5,45,25.6,50,25.6z M50,12.9c2.1,0,3.7,1.7,3.7,3.7
		c0,2.1-1.7,3.7-3.7,3.7c-2.1,0-3.7-1.7-3.7-3.7C46.3,14.5,47.9,12.9,50,12.9z"/>
	<path d="M53.6,32.9c1.8-0.4,3.6-1.1,5.2-2.2c1.2-0.8,1.6-2.4,0.8-3.6c-0.8-1.2-2.4-1.6-3.6-0.8c-3.7,2.3-8.4,2.3-12.1,0
		c-1.2-0.8-2.9-0.4-3.6,0.8c-0.8,1.2-0.4,2.9,0.8,3.6c1.6,1,3.4,1.7,5.2,2.2l-5,5c-1,1-1,2.7,0,3.7c0.5,0.5,1.2,0.8,1.9,0.8
		c0.7,0,1.3-0.3,1.9-0.8l4.9-4.9l4.9,4.9c1,1,2.7,1,3.7,0c1-1,1-2.7,0-3.7L53.6,32.9z"/>
</g>
</svg>
