<?xml version="1.0" encoding="UTF-8"?>
<!-- Generator: Adobe Illustrator 15.0.2, SVG Export Plug-In . SVG Version: 6.00 Build 0)  -->
<!DOCTYPE svg PUBLIC "-//W3C//DTD SVG 1.1//EN" "http://www.w3.org/Graphics/SVG/1.1/DTD/svg11.dtd">
<svg xmlns="http://www.w3.org/2000/svg" xmlns:xlink="http://www.w3.org/1999/xlink" version="1.1" id="Layer_1" x="0px" y="0px" width="512px" height="416.075px" viewBox="0 0 512 416.075" enable-background="new 0 0 512 416.075" xml:space="preserve">
<path d="M512,49.258c-18.837,8.351-39.076,13.996-60.329,16.528c21.682-12.999,38.343-33.583,46.181-58.098  c-20.292,12.032-42.784,20.785-66.699,25.479C411.997,12.766,384.693,0,354.486,0c-58.011,0-105.045,47.024-105.045,105.041  c0,8.228,0.929,16.253,2.725,23.944c-87.302-4.38-164.698-46.203-216.508-109.762c-9.042,15.519-14.22,33.57-14.22,52.813  c0,36.443,18.542,68.585,46.729,87.429c-17.214-0.552-33.411-5.279-47.573-13.14c-0.016,0.442-0.016,0.874-0.016,1.325  c0,50.878,36.206,93.334,84.253,102.996c-8.811,2.39-18.087,3.675-27.667,3.675c-6.776,0-13.351-0.649-19.77-1.883  c13.367,41.726,52.157,72.102,98.123,72.958c-35.953,28.161-81.24,44.966-130.456,44.966c-8.477,0-16.837-0.493-25.061-1.474  c46.482,29.804,101.697,47.187,161.014,47.187c193.213,0,298.865-160.053,298.865-298.846c0-4.546-0.11-9.088-0.306-13.604  C480.111,88.824,497.923,70.322,512,49.258z" fill="#000000"/>
</svg>
