<?xml version="1.0" encoding="utf-8"?>
<!-- Generator: Adobe Illustrator 18.1.0, SVG Export Plug-In . SVG Version: 6.00 Build 0)  -->
<svg version="1.1" id="Layer_1" xmlns="http://www.w3.org/2000/svg" xmlns:xlink="http://www.w3.org/1999/xlink" x="0px" y="0px"
	 viewBox="0 0 35 35" enable-background="new 0 0 35 35" xml:space="preserve">
<g>
	<path d="M14.9,24.6c-2.5-3.3-3-7.7-1.4-11.5c0.3-0.6,0.6-1.3,1-1.8l0.9,1.2l7.4-5.6l-4.1-5.5L18,1.6c-4.4,1.7-7.8,5-9.6,9.4
		c-1.8,4.2-1.8,8.9-0.1,13.2s5,7.6,9.3,9.4l0.4,0.2l5.8-4l-7.5-6.1L14.9,24.6z M17.9,31.7c-3.6-1.6-6.4-4.6-7.9-8.2
		c-1.6-3.8-1.5-8,0.1-11.9c1.6-3.7,4.4-6.6,8-8.2l2.3,3L15.7,10l-1.2-1.6l-0.7,0.9c-0.8,1-1.4,2-1.9,3.2c-2,4.7-1.1,10.1,2.2,13.9
		l0.5,0.6l1.7-1.2l4.7,3.8L17.9,31.7z"/>
	<path d="M20,21.8c1.1-1.1,1.8-2.7,1.8-4.3s-0.6-3.1-1.8-4.3l-1.2,1.2c0.8,0.8,1.3,1.9,1.3,3.1s-0.5,2.2-1.3,3.1L20,21.8z"/>
	<path d="M24.7,17.5c0-2.4-0.9-4.7-2.6-6.4l-1.2,1.2c1.4,1.4,2.1,3.2,2.1,5.2c0,2-0.8,3.8-2.1,5.2l1.2,1.2
		C23.8,22.2,24.7,19.9,24.7,17.5z"/>
	<path d="M24.3,8.9l-1.2,1.2c2,2,3.1,4.6,3.1,7.4c0,2.8-1.1,5.4-3.1,7.4l1.2,1.2c2.3-2.3,3.6-5.4,3.6-8.7
		C27.9,14.3,26.6,11.2,24.3,8.9z"/>
</g>
</svg>
