<?xml version="1.0" encoding="utf-8"?>
<!-- Generator: Adobe Illustrator 18.1.0, SVG Export Plug-In . SVG Version: 6.00 Build 0)  -->
<svg version="1.1" id="Layer_1" xmlns="http://www.w3.org/2000/svg" xmlns:xlink="http://www.w3.org/1999/xlink" x="0px" y="0px"
	 viewBox="0 0 35 35" enable-background="new 0 0 35 35" xml:space="preserve">
<g>
	<rect x="22.5" y="9.1" width="3.4" height="3.4"/>
	<rect x="19.2" y="5.7" width="3.4" height="3.4"/>
	<polygon points="15.8,5.7 19.2,5.7 19.2,2.4 15.8,2.4 15.8,5.7 12.5,5.7 12.5,9.1 15.8,9.1 	"/>
	<rect x="9.1" y="9.1" width="3.4" height="3.4"/>
	<path d="M25.9,12.5v3.4h0v3.4v3.4v3.4v3.4h-3.4v-3.4v-3.4v-3.4h-6.7h-1.7h-1.7v3.4v3.4v3.4H9.1v-3.4v-3.4v-3.4v-3.4v-3.4H5.7v3.4
		H2.4v3.4h3.4v3.4v3.4v3.4v3.4h3.4h20.2v-3.4v-3.4v-3.4v-3.4v-3.4h0v-3.4H25.9z M15.8,29.3v-3.4v-3.4h3.4v3.4v3.4H15.8z"/>
	<rect x="29.3" y="15.8" width="3.4" height="3.4"/>
</g>
</svg>
