<?xml version="1.0" encoding="utf-8"?>
<!-- Generator: Adobe Illustrator 18.1.0, SVG Export Plug-In . SVG Version: 6.00 Build 0)  -->
<svg version="1.1" id="Layer_1" xmlns="http://www.w3.org/2000/svg" xmlns:xlink="http://www.w3.org/1999/xlink" x="0px" y="0px"
	 viewBox="0 0 35 35" enable-background="new 0 0 35 35" xml:space="preserve">
<g>
	<path d="M27.9,22l3.3-10.4H12.4l-1.6-5.1h-7v1.7h5.7L13.9,22H27.9z M28.8,13.4l-2.2,6.9H15.1L13,13.4H28.8z"/>
	<path d="M14.9,22.8L14.9,22.8c-1.6,0-2.9,1.2-2.9,2.7c0,1.6,1.2,2.9,2.7,2.9l0.1,0c1.5,0,2.8-1.2,2.8-2.7c0-0.8-0.3-1.5-0.8-2
		C16.4,23.2,15.7,22.8,14.9,22.8z M14.9,26.7L14.9,26.7c-0.6,0-1.1-0.5-1.1-1.1c0-0.6,0.5-1.1,1.1-1.1l0,0c0.3,0,0.6,0.1,0.8,0.3
		c0.2,0.2,0.3,0.5,0.3,0.8C15.9,26.3,15.5,26.7,14.9,26.7z"/>
	<path d="M26.6,22.8L26.6,22.8c-1.6,0-2.9,1.2-2.9,2.7c0,1.6,1.2,2.9,2.7,2.9l0.1,0c1.5,0,2.8-1.2,2.8-2.7c0-0.8-0.3-1.5-0.8-2
		C28.1,23.2,27.4,22.8,26.6,22.8z M26.6,26.7L26.6,26.7c-0.6,0-1.1-0.5-1.1-1.1c0-0.6,0.5-1.1,1.1-1.1l0,0c0.3,0,0.6,0.1,0.8,0.3
		c0.2,0.2,0.3,0.5,0.3,0.8C27.6,26.3,27.2,26.7,26.6,26.7z"/>
</g>
</svg>
