<?xml version="1.0" encoding="utf-8"?>
<!-- Generator: Adobe Illustrator 18.1.0, SVG Export Plug-In . SVG Version: 6.00 Build 0)  -->
<svg version="1.1" id="Layer_1" xmlns="http://www.w3.org/2000/svg" xmlns:xlink="http://www.w3.org/1999/xlink" x="0px" y="0px"
	 viewBox="0 0 35 35" enable-background="new 0 0 35 35" xml:space="preserve">
<path d="M29.2,17.8l0.4-1L28,16.2c0.2-0.6,0.3-1.3,0.3-1.9c0-5-4.9-9-10.9-9s-10.9,4-10.9,9c0,0.7,0.1,1.4,0.3,2.1l-1.3,0.5l0.4,1
	c-1.7,0.9-2.3,2.8-1.5,5c0.7,1.9,2,2.9,3.6,2.9c0.2,0,0.5,0,0.8-0.1l0.4,1.2l4.8-1.8L10.3,15l-1.9,0.7c-0.1-0.5-0.2-1-0.2-1.5
	c0-1.8,0.8-3.4,2.1-4.6l2,2.1l0.6-0.5c1.2-0.9,2.8-1.4,4.5-1.4c1.7,0,3.3,0.5,4.5,1.4l0.6,0.5l2-2.1c1.3,1.3,2.1,2.9,2.1,4.6
	c0,0.5-0.1,0.9-0.2,1.3L24.7,15L21.1,25l2.2,0.8l-0.6,1.5L16.5,28l0.2,1.7l7.4-0.8l1-2.5l1,0.4l0.4-1.2c0.3,0.1,0.5,0.1,0.8,0.1
	c1.5,0,2.9-1.1,3.6-2.9C31.5,20.6,30.9,18.6,29.2,17.8z M5.9,22.1c-0.2-0.5-0.6-2,0.5-2.7L8,23.9C6.7,24,6.1,22.6,5.9,22.1z
	 M11.7,23.9l-1.6,0.6l-2.4-6.7l1.6-0.6L11.7,23.9z M22.2,9.4c-1.4-0.9-3.1-1.4-4.9-1.4c-1.8,0-3.5,0.5-4.9,1.4l-0.8-0.8
	c1.6-1,3.6-1.6,5.7-1.6c2.2,0,4.1,0.6,5.7,1.6L22.2,9.4z M25.8,17.2l1.6,0.6l-2.4,6.7l-1.6-0.6L25.8,17.2z M29.1,22.1
	c-0.2,0.5-0.8,1.9-2.1,1.8l1.6-4.5C29.7,20.2,29.3,21.7,29.1,22.1z"/>
</svg>
