<?xml version="1.0" encoding="utf-8"?>
<!-- Generator: Adobe Illustrator 18.1.0, SVG Export Plug-In . SVG Version: 6.00 Build 0)  -->
<svg version="1.1" id="Layer_1" xmlns="http://www.w3.org/2000/svg" xmlns:xlink="http://www.w3.org/1999/xlink" x="0px" y="0px"
	 viewBox="0 0 35 35" enable-background="new 0 0 35 35" xml:space="preserve">
<g>
	<polygon points="14.5,24.6 6.7,24.6 6.7,10.4 14.5,10.4 14.5,13.6 16.2,13.6 16.2,8.7 4.9,8.7 4.9,26.3 16.2,26.3 16.2,21.6 
		14.5,21.6 	"/>
	<polygon points="18.8,8.7 18.8,13.6 20.5,13.6 20.5,10.4 28.3,10.4 28.3,24.6 20.5,24.6 20.5,21.6 18.8,21.6 18.8,26.3 30.1,26.3 
		30.1,8.7 	"/>
	<polygon points="13.1,15 11.9,13.8 8.2,17.5 11.9,21.2 13.1,20 11.5,18.4 23.6,18.4 22,20 23.2,21.2 26.9,17.5 23.2,13.8 22,15 
		23.6,16.6 11.5,16.6 	"/>
</g>
</svg>
