<?xml version="1.0" encoding="utf-8"?>
<!-- Generator: Adobe Illustrator 18.1.0, SVG Export Plug-In . SVG Version: 6.00 Build 0)  -->
<svg version="1.1" id="Layer_1" xmlns="http://www.w3.org/2000/svg" xmlns:xlink="http://www.w3.org/1999/xlink" x="0px" y="0px"
	 viewBox="0 0 35 35" enable-background="new 0 0 35 35" xml:space="preserve">
<g>
	<path d="M17.8,13.3c-4.9,0-9.3,2.7-12.1,6.8c2.8,4.1,7.2,6.8,12.1,6.8c4.9,0,9.3-2.7,12.1-6.8C27.1,15.9,22.7,13.3,17.8,13.3z
		 M17.8,25c-2.7,0-4.9-2.2-4.9-4.9s2.2-4.9,4.9-4.9s4.9,2.2,4.9,4.9S20.5,25,17.8,25z"/>
	<rect x="16.6" y="8.2" width="2.3" height="2.3"/>
	<path d="M18.1,17.1c0.1,0.2,0.1,0.4,0.1,0.7c0,1.1-0.9,2-2,2c-0.5,0-0.9-0.2-1.3-0.5c-0.1,0.2-0.1,0.5-0.1,0.7c0,1.6,1.3,3,3,3
		c1.6,0,3-1.3,3-3C20.8,18.5,19.6,17.3,18.1,17.1z"/>
	<rect x="23.1" y="9.2" width="2.3" height="2.3"/>
	<rect x="27.9" y="12" width="2.3" height="2.3"/>
	<rect x="10.3" y="9.2" width="2.3" height="2.3"/>
	<rect x="4.8" y="12" width="2.3" height="2.3"/>
</g>
</svg>
