<?xml version="1.0" encoding="utf-8"?>
<!-- Generator: Adobe Illustrator 18.1.0, SVG Export Plug-In . SVG Version: 6.00 Build 0)  -->
<svg version="1.1" id="Layer_1" xmlns="http://www.w3.org/2000/svg" xmlns:xlink="http://www.w3.org/1999/xlink" x="0px" y="0px"
	 viewBox="0 0 35 35" enable-background="new 0 0 35 35" xml:space="preserve">
<g>
	<path d="M17.5,5.3c-6.8,0-12.2,5.5-12.2,12.2s5.5,12.2,12.2,12.2s12.2-5.5,12.2-12.2S24.3,5.3,17.5,5.3z M18.4,28v-2.2h-1.7V28
		c-5.1-0.4-9.2-4.5-9.6-9.5h2.3v-1.7H7c0.4-5.1,4.5-9.3,9.6-9.7v2.3h1.7V7c5.1,0.4,9.2,4.5,9.6,9.7h-2.3v1.7H28
		C27.5,23.5,23.5,27.6,18.4,28z"/>
	<path d="M21.3,11.6l-3.3,4c-0.2,0-0.3-0.1-0.5-0.1c-0.5,0-0.9,0.2-1.2,0.4l-3.2-1.6L12.3,16l3.3,1.7c0.1,1,0.9,1.8,1.9,1.8
		c1.1,0,1.9-0.9,1.9-1.9c0-0.2,0-0.5-0.1-0.7l3.4-4.1L21.3,11.6z"/>
</g>
</svg>
