<?xml version="1.0" encoding="utf-8"?>
<!-- Generator: Adobe Illustrator 18.1.0, SVG Export Plug-In . SVG Version: 6.00 Build 0)  -->
<svg version="1.1" id="Layer_1" xmlns="http://www.w3.org/2000/svg" xmlns:xlink="http://www.w3.org/1999/xlink" x="0px" y="0px"
	 viewBox="0 0 35 35" enable-background="new 0 0 35 35" xml:space="preserve">
<g>
	<path d="M14.8,18.1L3.9,7.2L0,11.1L10.9,22l5.3,1.8L14.8,18.1z M11.6,17.4l-1.5,1.5l-5.3-5.3L6.3,12L11.6,17.4z M3.9,9.7l1.1,1.1
		l-1.5,1.5l-1.1-1.1L3.9,9.7z M11.8,20.5l-0.5-0.5l1.5-1.5l0.4,0.4l0.5,2.1L11.8,20.5z"/>
	<polygon points="12.8,9.8 12.8,11.5 33.3,11.5 33.3,26 12.8,26 12.8,27.8 35,27.8 35,9.8 	"/>
	<rect x="18.5" y="14.1" width="4.8" height="1.7"/>
	<rect x="18.5" y="17.9" width="11.7" height="1.7"/>
	<rect x="18.5" y="21.7" width="11.7" height="1.7"/>
</g>
</svg>
