<?xml version="1.0" encoding="utf-8"?>
<!-- Generator: Adobe Illustrator 18.1.0, SVG Export Plug-In . SVG Version: 6.00 Build 0)  -->
<svg version="1.1" id="Layer_1" xmlns="http://www.w3.org/2000/svg" xmlns:xlink="http://www.w3.org/1999/xlink" x="0px" y="0px"
	 viewBox="0 0 35 35" enable-background="new 0 0 35 35" xml:space="preserve">
<g>
	<path d="M30,14.3c-1.4-5.7-6.6-9.7-12.5-9.7c-1.1,0-2.1,0.1-3.2,0.4C11,5.9,8.2,8,6.5,10.9S4.2,17.3,5,20.7
		c1.4,5.7,6.6,9.7,12.5,9.7c1.1,0,2.1-0.1,3.2-0.4c3.3-0.8,6.1-2.9,7.9-5.9C30.3,21.1,30.8,17.7,30,14.3z M27.1,23.2
		c-1.5,2.6-3.9,4.4-6.8,5.1c-0.9,0.2-1.8,0.3-2.7,0.3c-5.1,0-9.5-3.5-10.8-8.4c-0.7-2.9-0.3-5.9,1.2-8.4c1.5-2.6,3.9-4.4,6.8-5.1
		c0.9-0.2,1.8-0.3,2.7-0.3c5.1,0,9.5,3.5,10.8,8.4C29,17.6,28.6,20.6,27.1,23.2z"/>
	<path d="M17.5,9c-0.7,0-1.4,0.1-2.1,0.3c-2.2,0.6-4.1,1.9-5.2,3.9c-1.2,2-1.5,4.2-0.9,6.5c1,3.8,4.4,6.4,8.3,6.4
		c0.7,0,1.4-0.1,2.1-0.3c4.6-1.2,7.3-5.8,6.2-10.4C24.8,11.6,21.4,9,17.5,9z M24,19.4L20.8,18c0.1-0.4,0.1-0.9-0.1-1.3
		c0-0.1-0.1-0.2-0.1-0.4l2.8-2.2c0.3,0.5,0.5,1.1,0.7,1.7C24.4,17,24.4,18.3,24,19.4z M15.4,20.1c0.4,0.4,1,0.6,1.6,0.7l0.5,3.5
		c-1.9,0-3.6-0.8-4.8-2.1L15.4,20.1z M17.9,19c-0.1,0-0.3,0-0.4,0c-0.7,0-1.4-0.5-1.5-1.2c-0.1-0.4,0-0.8,0.2-1.2
		c0.2-0.4,0.6-0.6,1-0.7c0.1,0,0.3,0,0.4,0c0.7,0,1.4,0.5,1.5,1.2c0.1,0.4,0,0.8-0.2,1.2S18.3,18.9,17.9,19z M19.6,14.9
		c-0.4-0.4-1-0.6-1.6-0.7l-0.5-3.5c1.9,0,3.6,0.8,4.8,2.1L19.6,14.9z M15.8,10.9C15.8,10.9,15.9,10.9,15.8,10.9l0.5,3.5
		c-0.5,0.2-1,0.5-1.4,1L11.6,14c0,0,0,0,0,0C12.6,12.5,14.1,11.4,15.8,10.9z M11,15.6l3.3,1.3c-0.1,0.4-0.1,0.9,0.1,1.3
		c0,0.1,0.1,0.2,0.1,0.4l-2.8,2.2c-0.3-0.5-0.5-1.1-0.7-1.7C10.6,18,10.6,16.8,11,15.6z M19.2,24.1C19.2,24.1,19.2,24.1,19.2,24.1
		l-0.5-3.5c0.5-0.2,1-0.5,1.4-1l3.3,1.4C22.5,22.5,21,23.6,19.2,24.1z"/>
</g>
</svg>
