<?xml version="1.0" encoding="utf-8"?>
<!-- Generator: Adobe Illustrator 18.1.0, SVG Export Plug-In . SVG Version: 6.00 Build 0)  -->
<svg version="1.1" id="Layer_1" xmlns="http://www.w3.org/2000/svg" xmlns:xlink="http://www.w3.org/1999/xlink" x="0px" y="0px"
	 viewBox="0 0 35 35" enable-background="new 0 0 35 35" xml:space="preserve">
<g>
	<path d="M11.3,13.5c-2.2,0-4,1.8-4,4c0,2.2,1.8,4,4,4s4-1.8,4-4C15.3,15.3,13.5,13.5,11.3,13.5z M11.3,19.8c-1.3,0-2.3-1-2.3-2.3
		c0-1.3,1-2.3,2.3-2.3s2.3,1,2.3,2.3C13.6,18.8,12.6,19.8,11.3,19.8z"/>
	<path d="M18.9,13.3c-1.5-2.7-4.4-4.5-7.6-4.5c-4.8,0-8.7,3.9-8.7,8.7c0,4.8,3.9,8.7,8.7,8.7c3.1,0,6.1-1.7,7.6-4.5h3.1l1.7-1.8
		l2.1,1.8l1.8-1.8l1.7,1.7l3.2-2.5v-5.8H18.9z M30.7,18.3l-1.4,1.1l-1.8-1.9l-1.9,1.9l-2.1-1.8L21.2,20h-3.4l-0.2,0.5
		c-1.1,2.4-3.6,4-6.3,4c-3.8,0-6.9-3.1-6.9-6.9c0-3.8,3.1-6.9,6.9-6.9c2.7,0,5.1,1.6,6.3,4l0.2,0.5h12.9V18.3z"/>
</g>
</svg>
