<?xml version="1.0" encoding="utf-8"?>
<!-- Generator: Adobe Illustrator 18.1.0, SVG Export Plug-In . SVG Version: 6.00 Build 0)  -->
<svg version="1.1" id="Layer_1" xmlns="http://www.w3.org/2000/svg" xmlns:xlink="http://www.w3.org/1999/xlink" x="0px" y="0px"
	 viewBox="0 0 35 35" enable-background="new 0 0 35 35" xml:space="preserve">
<g>
	<path d="M5.9,22.2c0.3,1.5,1.7,2.6,3.3,2.6s2.9-1.1,3.3-2.6h11.4c0.3,1.5,1.7,2.6,3.3,2.6c1.6,0,2.9-1.1,3.3-2.6h4.6v-6.7L33.3,14
		L31,8.2H14.9l-4.2,5.4h-0.3h-8l-0.8,5.3l0.9,3.3H5.9z M9.1,23.1c-0.9,0-1.6-0.7-1.6-1.6s0.7-1.6,1.6-1.6s1.6,0.7,1.6,1.6
		C10.8,22.4,10,23.1,9.1,23.1z M27,23.1c-0.9,0-1.6-0.7-1.6-1.6s0.7-1.6,1.6-1.6s1.6,0.7,1.6,1.6C28.7,22.4,27.9,23.1,27,23.1z
		 M31.1,13.6H26l0.5-3.7h3.3L31.1,13.6z M15.8,9.9h9l-0.5,3.7H12.9L15.8,9.9z M4,15.3h6.5h1.1H32l1.1,0.9v4.2h-2.9
		C29.8,19,28.5,18,27,18s-2.8,1-3.2,2.4H12.3C11.9,19,10.6,18,9.1,18s-2.8,1-3.2,2.4h-2l-0.4-1.7L4,15.3z"/>
	<rect x="0.1" y="25.1" width="34.9" height="1.7"/>
</g>
</svg>
