<svg width="24" height="30" viewBox="0 0 24 30" xmlns="http://www.w3.org/2000/svg"><title>1_RUB</title><desc>Created with Sketch.</desc><path d="M22.5 5c-.7-1.2-1.6-2.2-2.7-2.8-1.1-.7-2.3-1.1-3.8-1.4-1.4-.2-2.8-.3-4.2-.3H4.1v13.1H.4v4.8h3.7v1.8H.4V25h3.7v4.7h5.5V25h7.6v-4.8H9.6v-1.8h3.2c1.4 0 2.7-.2 4-.5 1.3-.3 2.4-.9 3.5-1.7 1-.8 1.8-1.8 2.4-3 .6-1.2.9-2.2.9-4 0-1.9-.4-3-1.1-4.2zm-5.2 6.2c-.3.6-.8 1.1-1.3 1.5-.6.4-1.2.6-1.9.7-.7.1-1.4.2-2.1.2H9.6V5.2h2.7c.7 0 1.4.1 2 .2.7.1 1.3.4 1.8.7.5.3.9.8 1.3 1.4.3.6.5.8.5 1.7-.1 1-.2 1.3-.6 2z" fill="#000"/></svg>