<svg width="14" height="14" viewBox="0 0 14 14" xmlns="http://www.w3.org/2000/svg">
	<path d="M13.59 10.993l-3.184-3.215c1.232-2.593.205-5.808-2.362-7.156C7.224.207 6.4 0 5.477 0 3.423 0 1.575 1.14.65 2.904c-.718 1.244-.82 2.8-.41 4.148.41 1.452 1.335 2.592 2.67 3.215.822.414 1.643.622 2.567.622.822 0 1.643-.21 2.362-.52l3.182 3.215c.206.208.616.415.924.415.308 0 .72-.104.924-.415l.72-.726c.205-.208.41-.623.41-.934 0-.31-.103-.726-.41-.933zM3.73 8.607C2.91 8.09 2.192 7.363 1.986 6.43c-.308-.934-.205-1.97.308-2.8.616-1.245 1.848-1.97 3.286-1.97.616 0 1.232.103 1.745.414 1.746.933 2.465 3.215 1.54 4.978-.615 1.244-1.848 1.97-3.285 1.97-.72.104-1.335-.103-1.848-.415z"/>
</svg>
