<?xml version="1.0" encoding="utf-8"?>
<!-- Generator: Adobe Illustrator 18.1.0, SVG Export Plug-In . SVG Version: 6.00 Build 0)  -->
<svg version="1.1" id="Layer_1" xmlns="http://www.w3.org/2000/svg" xmlns:xlink="http://www.w3.org/1999/xlink" x="0px" y="0px"
	 viewBox="0 0 35 35" enable-background="new 0 0 35 35" xml:space="preserve">
<g>
	<g>
		<path fill="#FABE00" d="M17.5,21.7c-0.7,0-1.4-0.2-2-0.5c-1-0.5-1.7-1.4-2-2.5c-0.3-1.1-0.2-2.2,0.3-3.2c0.7-1.4,2.1-2.2,3.7-2.2
			c0.7,0,1.4,0.2,2,0.5c1,0.5,1.7,1.4,2,2.5s0.2,2.2-0.3,3.2C20.4,20.8,19,21.7,17.5,21.7z M17.5,15.4c-0.8,0-1.5,0.4-1.8,1.1
			c-0.3,0.5-0.3,1.1-0.2,1.6c0.2,0.5,0.5,1,1,1.2c0.3,0.2,0.6,0.2,1,0.2c0.8,0,1.5-0.4,1.8-1.1c0.3-0.5,0.3-1.1,0.2-1.6
			c-0.2-0.5-0.5-1-1-1.2C18.2,15.5,17.8,15.4,17.5,15.4z"/>
	</g>
	<g>
		<g>
			<rect x="16.5" y="7.4" fill="#FABE00" width="2.1" height="3.7"/>
		</g>
		<g>
			<rect x="16.5" y="23.9" fill="#FABE00" width="2.1" height="3.7"/>
		</g>
	</g>
	<g>
		<g>
			<rect x="23.9" y="16.5" fill="#FABE00" width="3.7" height="2.1"/>
		</g>
		<g>
			<rect x="7.4" y="16.5" fill="#FABE00" width="3.7" height="2.1"/>
		</g>
	</g>
	<g>
		<g>
			
				<rect x="9.8" y="10.6" transform="matrix(0.7071 0.7071 -0.7071 0.7071 11.6467 -4.8241)" fill="#FABE00" width="3.7" height="2.1"/>
		</g>
		<g>
			
				<rect x="21.5" y="22.3" transform="matrix(0.7071 0.7071 -0.7071 0.7071 23.3535 -9.6732)" fill="#FABE00" width="3.7" height="2.1"/>
		</g>
	</g>
	<g>
		<g>
			
				<rect x="22.3" y="9.8" transform="matrix(0.7071 0.7071 -0.7071 0.7071 15.0755 -13.102)" fill="#FABE00" width="2.1" height="3.7"/>
		</g>
		<g>
			
				<rect x="10.6" y="21.5" transform="matrix(0.7071 0.7071 -0.7071 0.7071 19.9247 -1.3952)" fill="#FABE00" width="2.1" height="3.7"/>
		</g>
	</g>
</g>
</svg>
