<svg width="27" height="21" viewBox="0 0 27 21" xmlns="http://www.w3.org/2000/svg">
	<path d="M26.5 9L25 7.5l-1.9 1.9h-2.9c-.1-.4-.2-.7-.4-1.1l2-2h2.7V4.2h-2.1v-2h-2.1v2.7l-2 2-.1-.1c-.3-.2-.6-.3-.9-.4V3.5l1.9-1.9L17.7.1l-1.5 1.5L14.7.1l-1.5 1.5 1.9 1.9v5.1c.3-.2.7-.3 1-.3.3 0 .7.1 1 .2 1 .5 1.4 1.8.9 2.8-.4.7-1.1 1.1-1.8 1.1-.3 0-.7-.1-1-.2h-.1v5.1l-1.9 1.9 1.5 1.5 1.5-1.5 1.5 1.5 1.5-1.5-1.9-1.9v-2.9c.4-.1.7-.2 1.1-.4l2 2v2.7h2.1v-2.1h2.1v-2.1h-2.7l-2-2 .1-.1c.2-.3.3-.6.4-.9h2.9l1.9 1.9 1.5-1.5-1.7-1.4L26.5 9z" fill="#0083FF"/>
	<path d="M4.214 18.42L2.73 16.936l2.616-2.617 1.485 1.484-2.616 2.616zM10.6 8.4c.3 0 .7.1 1 .2 0 0 .1 0 .1.1V6.5c-.3-.1-.7-.1-1.1-.1-1.5 0-2.9.8-3.7 2.2-.5 1-.6 2.1-.3 3.2s1 1.9 2 2.5c.6.3 1.3.5 2 .5.4 0 .7 0 1.1-.1v-2.2c-.3.2-.7.3-1.1.3-.3 0-.7-.1-1-.2-.5-.3-.8-.7-1-1.2-.2-.5-.1-1.1.2-1.6.3-1 1.1-1.4 1.8-1.4zM4.187 2.585L6.804 5.2 5.32 6.687 2.702 4.07l1.484-1.485zM.5 9.5h3.7v2.1H.5V9.5zM9.6.4h2.1v3.7H9.6V.4zm0 16.5h2.1v3.7H9.6v-3.7z" fill="#FABE00"/>
</svg>
