<svg width="22" height="21" viewBox="0 0 22 21" xmlns="http://www.w3.org/2000/svg">
	<path d="M19.784 7.37l-1.92 1.918h-2.927c-.1-.403-.2-.706-.403-1.11l2.02-2.02h2.725V4.04h-2.12v-2.02h-2.122v2.727l-2.02 2.02-.1-.102c-.303-.2-.605-.302-.908-.403V3.332l1.918-1.92L12.413 0 10.9 1.514 9.384 0 7.87 1.514l1.918 1.92V6.36c-.403.102-.706.202-1.11.404l-2.02-2.02V2.02H4.54v2.12h-2.02v2.12h2.727l2.02 2.02-.102.1c-.2.303-.302.606-.403.908H3.832L1.912 7.37.5 8.885 2.014 10.4.5 11.912l1.514 1.515 1.92-1.918H6.86v.202c.102.302.202.605.404.908l-2.02 2.02H2.52v2.12h2.12v2.12h2.12v-2.726l2.02-2.02.1.102c.303.2.606.302.908.403v2.927l-1.918 1.92L9.385 21l1.514-1.514L12.412 21l1.515-1.514-1.918-1.92V14.64c.403-.102.706-.203 1.11-.404l2.02 2.02v2.725h2.12v-2.12h2.12v-2.12h-2.726l-2.02-2.02.102-.1c.2-.303.302-.606.403-.908h2.927l1.92 1.918 1.513-1.515-1.514-1.514 1.312-1.715-1.514-1.515zM10.9 12.52c-.304 0-.708-.102-1.01-.203-.505-.303-.808-.706-1.01-1.21-.202-.506-.1-1.112.202-1.617.404-.706 1.11-1.11 1.817-1.11.302 0 .706.1 1.01.202.705.404 1.11 1.11 1.11 1.918 0 .303-.102.606-.203.91-.404.705-1.11 1.11-1.918 1.11z" fill="#0083FF"/>
</svg>
