<?xml version="1.0" encoding="utf-8"?>
<!-- Generator: Adobe Illustrator 18.1.0, SVG Export Plug-In . SVG Version: 6.00 Build 0)  -->
<svg version="1.1" id="Layer_1" xmlns="http://www.w3.org/2000/svg" xmlns:xlink="http://www.w3.org/1999/xlink" x="0px" y="0px"
	 viewBox="0 0 35 35" enable-background="new 0 0 35 35" xml:space="preserve">
<g>
	<g>
		<g>
			<path fill="#FF0000" d="M26.4,27.9H8.6c-1.1,0-2-0.4-2.4-1.2C5.7,25.9,5.8,25,6.3,24l8.9-15.4c0.5-0.9,1.4-1.5,2.3-1.5
				c0.9,0,1.7,0.5,2.3,1.5L28.7,24c0.5,0.9,0.6,1.9,0.2,2.7C28.4,27.5,27.5,27.9,26.4,27.9z M17.5,9.2c-0.1,0-0.3,0.1-0.5,0.5
				L8.1,25.1c-0.2,0.3-0.2,0.6-0.2,0.6c0,0.1,0.2,0.2,0.6,0.2h17.8c0.4,0,0.6-0.1,0.6-0.2c0-0.1,0-0.3-0.2-0.6L18,9.6
				C17.8,9.3,17.6,9.2,17.5,9.2z"/>
		</g>
	</g>
	<g>
		<polygon points="19.9,18.3 19.9,22 18.5,22 18.5,18.3 16.5,18.3 16.5,22 15.1,22 15.1,18.3 13,18.3 13,22 13,24 13,24.1 22,24.1 
			22,24 22,22 22,18.3 		"/>
	</g>
</g>
</svg>
