<?xml version="1.0" encoding="utf-8"?>
<!-- Generator: Adobe Illustrator 18.0.0, SVG Export Plug-In . SVG Version: 6.00 Build 0)  -->
<!DOCTYPE svg PUBLIC "-//W3C//DTD SVG 1.1//EN" "http://www.w3.org/Graphics/SVG/1.1/DTD/svg11.dtd">
<svg version="1.1" id="Layer_1" xmlns="http://www.w3.org/2000/svg" xmlns:xlink="http://www.w3.org/1999/xlink" x="0px" y="0px"
	 viewBox="0 0 78 87" enable-background="new 0 0 78 87" xml:space="preserve">
<g transform="translate(0.000000,87.000000) scale(0.100000,-0.100000)">
	<path fill="#094379" d="M690,792c-24-35-29-42-57-76c-7-8-23-33-35-56c-13-23-28-49-33-59c-6-10-24-32-42-49c-21-22-30-38-26-52
		c3-11-1-27-8-36c-15-19-35-52-44-74c-4-8-19-42-34-75c-16-33-33-72-39-87c-7-18-19-28-32-28c-16,0-20,7-20,38c0,20-7,46-15,56
		c-8,11-15,34-15,52s-4,36-10,39c-5,3-10,14-10,24c0,9-6,26-14,36c-13,18-14,17-29-6c-13-20-14-32-5-69c6-25,17-57,24-72
		c8-14,14-37,14-50c0-12,7-32,15-42c8-11,15-27,15-36c0-18,34-50,53-50c8,0,23,10,35,23c23,25,92,154,92,173c0,6,7,17,15,24
		s15,23,15,37c0,13,7,26,15,29c8,4,15,14,15,23c0,22,41,61,63,61c20,0,22,21,5,38c-8,8-8,15,3,28c7,9,18,24,24,35
		c29,52,130,191,142,196c7,3,13,14,13,24c0,15-7,19-32,19C721,830,710,823,690,792z"/>
	<path d="M99,534c-23-25-24-30-24-192c0-121,4-167,13-170c14-4,16-48,2-57c-18-11-11-41,16-66c24-22,34-24,146-27c69-2,125,1,132,7
		s17,6,26,1c20-13,67-13,75,0c4,6,15,6,30,0c27-10,64-1,82,21c15,19,37,155,28,177c-4,9-6,63-6,119c1,56-2,104-7,107
		c-13,8-52-50-52-78c0-14,8-29,18-35c16-9,16-10-1-17c-15-5-18-17-16-68c1-33,8-71,15-83c12-19,10-25-18-57l-32-36h-93
		c-57,0-102-5-114-12c-17-10-23-11-26,0c-3,8-26,12-68,12c-40,0-67,5-74,14c-6,8-13,70-15,152c-3,76-5,146-5,154c-1,8,1,32,5,53
		c7,41,38,63,70,50c9-3,20,0,24,7c6,10,13,11,22,4c7-6,54-11,104-12c95-2,124,9,111,42c-5,12-37,15-175,15C123,560,123,560,99,534z"
		/>
</g>
</svg>
