<svg xmlns="http://www.w3.org/2000/svg" style="width:0; height:0; visibility:hidden;">
    <symbol id="icon_box" viewBox="0 0 57 54">
       <metadata> Created by potrace 1.10, written by Peter Selinger 2001-2011 </metadata> <g transform="translate(0.000000,54.000000) scale(0.100000,-0.100000)" fill="#000000" stroke="none"> <path d="M60 527 c0 -8 -9 -22 -20 -32 -18 -17 -20 -31 -20 -181 0 -98 4 -165
10 -169 14 -8 13 -41 -2 -64 -9 -15 -9 -23 2 -36 34 -41 60 -45 274 -42 222 4
236 8 236 57 0 19 6 30 18 33 9 3 2 5 -15 6 -24 1 -37 -5 -49 -24 -16 -24 -21
-25 -118 -25 -67 0 -106 -4 -114 -12 -10 -10 -17 -10 -32 0 -11 6 -47 12 -79
12 -33 0 -63 5 -66 10 -4 6 -6 72 -6 147 0 81 -4 142 -10 149 -7 9 -7 19 0 33
6 11 11 31 11 45 0 29 31 50 60 41 12 -4 22 0 29 12 10 17 12 17 21 1 21 -34
69 -10 70 35 0 25 -96 25 -103 0 -4 -17 -5 -17 -6 0 -1 13 -10 17 -46 17 -31
0 -45 -4 -45 -13z"/> <path d="M283 509 c-15 -39 -10 -41 108 -36 71 3 98 1 110 -10 19 -16 69 -8
69 11 0 15 -57 37 -76 29 -10 -4 -17 2 -21 16 -7 26 -20 27 -28 1 -3 -11 -15
-20 -26 -20 -12 0 -19 7 -19 20 0 17 -7 20 -53 20 -50 0 -53 -2 -64 -31z"/> <path d="M523 404 c-41 -47 -27 -94 28 -94 17 0 19 8 19 60 0 68 -11 75 -47
34z"/> <path d="M515 286 c-15 -11 -17 -21 -11 -71 7 -64 19 -85 47 -85 16 0 19 8 19
46 0 33 -5 51 -17 60 -17 13 -17 13 0 14 11 0 17 8 17 25 0 28 -24 34 -55 11z"/> </g> 
    </symbol>
    <symbol id="icon_checked" viewBox="0 0 78 87">
       <g transform="translate(0.000000,87.000000) scale(0.100000,-0.100000)"> <path fill="#094379" d="M690,792c-24-35-29-42-57-76c-7-8-23-33-35-56c-13-23-28-49-33-59c-6-10-24-32-42-49c-21-22-30-38-26-52
		c3-11-1-27-8-36c-15-19-35-52-44-74c-4-8-19-42-34-75c-16-33-33-72-39-87c-7-18-19-28-32-28c-16,0-20,7-20,38c0,20-7,46-15,56
		c-8,11-15,34-15,52s-4,36-10,39c-5,3-10,14-10,24c0,9-6,26-14,36c-13,18-14,17-29-6c-13-20-14-32-5-69c6-25,17-57,24-72
		c8-14,14-37,14-50c0-12,7-32,15-42c8-11,15-27,15-36c0-18,34-50,53-50c8,0,23,10,35,23c23,25,92,154,92,173c0,6,7,17,15,24
		s15,23,15,37c0,13,7,26,15,29c8,4,15,14,15,23c0,22,41,61,63,61c20,0,22,21,5,38c-8,8-8,15,3,28c7,9,18,24,24,35
		c29,52,130,191,142,196c7,3,13,14,13,24c0,15-7,19-32,19C721,830,710,823,690,792z"/> <path d="M99,534c-23-25-24-30-24-192c0-121,4-167,13-170c14-4,16-48,2-57c-18-11-11-41,16-66c24-22,34-24,146-27c69-2,125,1,132,7
		s17,6,26,1c20-13,67-13,75,0c4,6,15,6,30,0c27-10,64-1,82,21c15,19,37,155,28,177c-4,9-6,63-6,119c1,56-2,104-7,107
		c-13,8-52-50-52-78c0-14,8-29,18-35c16-9,16-10-1-17c-15-5-18-17-16-68c1-33,8-71,15-83c12-19,10-25-18-57l-32-36h-93
		c-57,0-102-5-114-12c-17-10-23-11-26,0c-3,8-26,12-68,12c-40,0-67,5-74,14c-6,8-13,70-15,152c-3,76-5,146-5,154c-1,8,1,32,5,53
		c7,41,38,63,70,50c9-3,20,0,24,7c6,10,13,11,22,4c7-6,54-11,104-12c95-2,124,9,111,42c-5,12-37,15-175,15C123,560,123,560,99,534z"/> </g> 
    </symbol>
    <symbol id="icon_csssr" viewBox="0 0 618 148">
      <path fill="currentColor" d="M21.042 23.056C7.707 36.76.482 55.104.482 74.186c0 20.75 7.04 38.906 22.418 52.797 14.45 13.15 32.977 20.564 52.428 20.564 11.302 0 20.01-2.777 32.052-6.484v-43.54c-7.595 9.078-19.45 14.82-31.308 14.82-22.604 0-37.793-15.935-37.793-37.98 0-21.674 15.008-38.717 37.233-38.717 5.115 0 10.14.962 14.83 2.73 5.816-10.463 11.287-20.86 17.004-30.905C96.61 3.04 85.872.453 74.214.453c-19.636 0-39.462 8.52-53.172 22.604zM212.464 40.1c-6.67-5.557-15.194-9.265-24.083-9.265-6.67 0-15.563 3.893-15.563 11.672 0 8.15 9.818 11.302 16.12 13.336l9.262 2.778c19.45 5.74 34.455 15.56 34.455 38.164 0 13.895-3.333 28.16-14.45 37.607-10.932 9.265-25.567 13.156-39.646 13.156-17.6 0-34.832-5.926-49.09-15.934l15.562-29.27c9.08 7.965 19.82 14.45 32.232 14.45 8.52 0 17.598-4.257 17.598-14.08 0-10.187-14.265-13.71-22.044-15.933-22.79-6.486-37.793-12.413-37.793-39.46 0-28.344 20.195-46.87 48.17-46.87 14.08 0 31.308 4.446 43.72 11.486L212.464 40.1zM335.822 40.1c-6.67-5.557-15.193-9.265-24.082-9.265-6.67 0-15.564 3.893-15.564 11.672 0 8.15 9.818 11.302 16.12 13.336l9.262 2.778c19.45 5.74 34.456 15.56 34.456 38.164 0 13.895-3.333 28.16-14.45 37.607-10.933 9.265-25.567 13.156-39.646 13.156-17.598 0-34.83-5.926-49.09-15.934l15.563-29.27c9.08 7.965 19.822 14.45 32.233 14.45 8.52 0 17.598-4.257 17.598-14.08 0-10.187-14.265-13.71-22.044-15.933-22.79-6.486-37.793-12.413-37.793-39.46 0-28.344 20.196-46.87 48.17-46.87 14.08 0 31.31 4.446 43.72 11.486L335.823 40.1zM459.177 40.1c-6.67-5.557-15.194-9.265-24.083-9.265-6.67 0-15.564 3.893-15.564 11.672 0 8.15 9.818 11.302 16.12 13.336l9.263 2.778c19.45 5.74 34.455 15.56 34.455 38.164 0 13.895-3.332 28.16-14.45 37.607-10.932 9.265-25.566 13.156-39.646 13.156-17.597 0-34.83-5.926-49.09-15.934l15.563-29.27c9.078 7.965 19.82 14.45 32.232 14.45 8.52 0 17.598-4.257 17.598-14.08 0-10.187-14.265-13.71-22.044-15.933-22.788-6.486-37.793-12.413-37.793-39.46.005-28.344 20.195-46.87 48.17-46.87 14.08 0 31.31 4.446 43.72 11.486L459.177 40.1zM617.262 143.84H576.8l-34.276-53.727h-.37v53.727h-36.31V4.154h54.282c27.6 0 48.536 13.155 48.536 42.98 0 19.266-10.743 35.938-30.564 39.456l39.164 57.25zM542.15 66.774h3.52c11.857 0 25.192-2.223 25.192-17.412s-13.335-17.413-25.19-17.413h-3.523v34.824z"/>
    </symbol>
    <symbol id="icon_file" viewBox="0 0 24 24">
      <path d="M13 9h5.5L13 3.5V9M6 2h8l6 6v12a2 2 0 0 1-2 2H6c-1.11 0-2-.9-2-2V4c0-1.11.89-2 2-2m.12 13.5l3.74 3.74 1.42-1.41-2.33-2.33 2.33-2.33-1.42-1.41-3.74 3.74m11.16 0l-3.74-3.74-1.42 1.41 2.33 2.33-2.33 2.33 1.42 1.41 3.74-3.74z" fill="currentColor"/>
    </symbol>
    <symbol id="icon_folder" viewBox="0 0 24 24">
      <path d="M10 4H4c-1.11 0-2 .89-2 2v12a2 2 0 0 0 2 2h16a2 2 0 0 0 2-2V8c0-1.11-.9-2-2-2h-8l-2-2z" fill="currentColor"/>
    </symbol>
    <symbol id="icon_uranchik" viewBox="49 199 440 349">
      <path d="M485.4 382.5c-2.5 10.1-2.2 22.1-13.9 18.9l-.2-16.9c2.8-10.8 4.3-20.9 3.9-32-1.2-30.5-5.3-59.6-25.1-83.9l-13.9-17.2-6.7-7.7-9.1-6.3-7.9-7.7-12.1-7.6-15.8-8-14.9-3.9s-18.1-3.2-20.4-2.6c-2.3.6-13.5-.2-13.5-.2l-12.4.5-15.8 3.9c-12.5 3.1-24.8 5.3-36.7 11.5-31.6 16.2-51.4 42.4-66.8 73.7l-4.5 12.5-2.8 12.1-5.9 8.2-4-4.5.8-6.2 4-13 3.6-10.7c4.5-9.4 8.8-18.9 14.9-27.5 9-13.2 25.8-36.4 40.4-43.5l28-13.6 19.8-7.9 22.3-2.9c44.7-6 83.7 13.8 116.4 42.6 36.9 32.2 60.4 91.8 48.3 139.9zm-289.3-37.9l8.5-5.6 10.5-5.7 7.9-4.3 6.3-4.3-.2 2.9-7.1 5.3-11.1 7-8.4 5.7-8 5.3-6.3 4-3.9 2.2-3.1-2.5 6.7-4.5 8.2-5.5zm10.6-21l15.2-8.8 13.6-6.7 13.2-7.9 6-2 3.1 2.8.2.8.5-.5c1.1-1.1 2.8-2.6 2.8-2.6l3.9-2 3.7-.3 2.6 5.1-3.1 9-8.2 8-8.2 10.2-7 6.7-10.6 10.6-9.3 7.9-9.9 9.7-11.8 10.2-5 3.6-2.9.3-3.2 2 .6 4.5-6.3 1.2-3.6.6-3.6 3.6-2.2 1.4-6.3 4.3-3.6 7.6-4.8 10.2-8.5 15.5-16.6 7.9-12.5 4-9.7.5-7.4-.2-6.7-1.7-1.9-5.3 2.8 2.5 6.8.9 6.7-.2 8.5-.6 7.6-1.9 6.5-4.2 5-4.2 3.2-4.3 5.6-6.3 2.5-5.6 3.7-5.7-5 2.6-5.3 1.7 5.9-6.8 2.9-6 8.5-6.8 6.3-5.3 7.6-5.3 4.3-2.2-2.2-2.5 4.2-1.9 5.1-2.5 6.7-3.6 6.7-6.3 6.8-5.1 6.7-5 7.6-6.8 6.2-5 4.8-5.3 1.1-.8-.6-3.6.6-6.7 2.9.9.5 3.6v2.9l4.2-3.9 3.6-3.4 4.8-5.6.5-1.5-1.4.9 1.4-5.4.6-5.6-5.6-1.5-5.6 3.6-6 3.7-9.4 6.7-6.5 3.9-13.6 11.8-13.9 7.7-5.3 3.9-4.5-1.2-5.1 2.2-9.1 7.1-6.3 4.6-8.5 8.2-5.9 5.4-7 5.9-5.9 5.6-5.9 4-10.5 8.2-8.5 6.3-6 5.6-4.5 5.1L96 417l-10.4 9-16.9 13.5-6.2 6.3-11.3-2.2 9.9-8.8 12.9-9.7 15.9-11 8.8-5.9 10.7-9.7 10.8-8.8 11.5-11.3 10.2-7.4 11.1-8.5 8.7-9.7 13.6-8.7 13.5-8.5 17.9-12zm50.3-10.1l2.9-.3 3.2-2.8 1.9-4 1.4-3.7-1.2-2.8-4 .8-3.6 1.2 1.2 5.6-1.2 4.3-1.7 1.2 1.1.5zM65.9 471.4l10.5.6 13.8-.5 8.2-5.3 11-8.8 10.7-8.8 12.7-4.5 14.4-3.4 10.5-3.6 5.9-3.4 5.9-4.3 3.1-3.4 3.7-4.3 2.5-5.1 3.7-4.6 4.2-5 3.1-6.3-3.6 1.7-1.2-2 2.6-5.9 7-2.9 4.8-2 6.3-3.9 6.7-1.9 6-5.1 4.2-3.6 3.1-3.7 2.3-4.6 1.2-2.9.5-4-.2-2.5-2-2.8 2.5.2 3.2 1.1 2.9 3.9-.8 6.3-5.6 6.7-4.2 6.5-6.7 5.3-7.3 6.3-9 4.3-7.1 7.6-5.3 4-4.3 10.1-8.7 9.1-7.4 7.1-11.1 6.2-6 3.2-8 2.3-8.5 2.5-7.1 2.6-9.3 7-2 4.5-1.9 4.8-6.7 5.7-8.2 4.3-9.7 2.3-8.4 2.9-7.4.9-9.3-.2-4.6-1.5-9-3.2-1.2-3.1 7.1 1.2 5.3 2.2 5 .6 5-.2 1.2-2.2-2.5-2.2-5.9-.2-5.3-.8-12.2-3.4.6-2.5 7.7 2.5 8.6 2.1zm32.8 58c.9.2 11.3 1.4 11.3 1.4l14.2 1.7 19.7.2 17.3-1.1 15.2-1.2 23.5-5.9 3.6-9.1 2.2-20.4 1.4-21.4-2-17.5-5-14.5-6.3-11.8-2.5-10.2 6.3-10.2 5.3 11 4.8 11.6 6.8 10.4 7.4 11 8.4 9.4 10.7 8.5 10.8 5.7.9 4.8-6.3-2.2-5.1-2.9-9-7.7-7.9-5.3-6.3-1.2-.6 7.7-.5 17-.5 17.2-1.2 16.4-.8 10.7-3.7 5.6-.5-3.7-5.4 1.7-3.7 1.4-9.4 2.2-12.8 1.2-15-.9-14.5-1.4-16.7.6c-9.9.5-34.2 2.2-40.5-6.7 1-1 4.1-2.4 6.4-2.1zm165.3 1.7l6-1.2 4.5-4 4-5.1 2.5-6.5-.9-7-1.5-7.4-4.5-4.3 2.9-.2 3.6 2.9 3.2 7 1.2 9-2.2 6.3-2.3 4.5-2.2 4-3.6 1.5 1.7 1.7 3.6 1.7-2.5.9-4-2.2-2.9-.3-5 .6-5.9.9-5-.8-4.3-3.4 6.2.9 7.4.5zm12.8-266c.6-.3 1.2-.6 1.4-.9l1.7 2.6c-.5.5-1.2 1.1-2.3 1.7-4.3 2-8.2-.5-10.4-5.3-2.9-6.3-.6-10.5 2.6-12.2 1.2-.6 2-.6 2.5-.6l.8 2.9c-.5 0-.9.2-1.7.5-1.9.9-2.8 3.2-.8 7.6 1.9 3.7 4.2 4.6 6.2 3.7zm18.6 104.7l3.6-.9 2-.8 4.8.5 4.3.9-1.1 2.3-4.3.5-6 .2-5.7-.2-3.2-.9-1.2-1.5 3.4.5 3.4-.6zm-8.8-9.1l-2.9.5-2.7-.2-4.8.9-2.8-2.8 1.4-.9 3.6-1.9 4 .2 2.6.5 4.2-.6 2.9-.6 2.2.2 3.7-2.3s1.2.2 2.2.2c.6 0 1.2.2 1.2.2l-5.6-1.2-4.3-.2-3.7-.5-.8-1.7h4.2l6-.3 4.6.9 3.2 1.1 1.7 3.7 2.8 2.8-4 1.2-4.6.6-.5 2.5-.6 1.5-3.7 1.9-6.5 1.1-2.6-3.6-.4-3.2zm49.5 105.7l-2.9-.9-3.7-.8-2.9-2.3 2-1.4 4.3.8 6.8-.8 5.9.5 3.6.5-1.5 3.4-4.6.9-7 .1zm55.1-99.5l3.6-1.2h3.2l-.5 1.5-3.7.6-4.6-.5.9-.3c.6.1 1.1-.1 1.1-.1zm-17.2 6l-4-1.2-2.8-.5-2-2 1.2-1.2 2.8 1.1 2.9.2 3.6.8 4 .2 4 .9-1.4 1.4-4.2.6-4.1-.3zm18.4 41.7l.6 2.6.6 6.8 1.4 6.2-1.2-3.6-2.6-3.2-2.2-2.6-3.1-2.5-4.8-1.2-3.7-1.5-5.3-1.7-1.5-3.2 2.5-1.4 3.4 2.2 5.4 2 4 .5 6.5.6zm-94.5-164.1c2.8.9 4 2.8 4.3 4.6.6 3.4-1.4 6-5 6.8-1.4.3-2.9.2-3.7 0l-.2-3.2c.8.3 2.2.3 3.2.2 1.7-.3 2.3-1.4 2.2-2.6-.3-1.4-1.2-1.9-2.9-2.5-2.8-1.1-4.2-2.8-4.5-4.5-.6-2.9.9-5.9 4.8-6.7 1.2-.3 2.5-.2 2.9.2v3.2c-.6-.2-1.4-.5-2.5-.2-1.5.3-2 1.4-1.9 2.3.5 1.2 1 1.7 3.3 2.4zm30.6-2.4c2.5 1.4 3.4 3.4 3.4 5.4 0 3.4-2.5 5.7-6.2 5.7-1.5 0-2.9-.5-3.6-.8l.5-3.2c.8.5 2 .6 3.1.6 1.7 0 2.5-.9 2.5-2.2 0-1.4-.9-2-2.5-3.1-2.5-1.5-3.6-3.6-3.6-5.3 0-2.9 2-5.6 5.9-5.6 1.2 0 2.5.3 2.9.6l-.6 3.2c-.5-.3-1.4-.6-2.3-.6-1.5 0-2.3.9-2.3 2 .3 1.4.8 2 2.8 3.3zm24.3-1.1c.5-2.9 2.8-5.3 6.7-4.6 1.2.2 2.3.6 2.8 1.1l-.9 2.9c-.5-.5-1.2-.8-2.2-.9-1.5-.2-2.5.6-2.5 1.7-.2 1.1.3 1.7 2.2 3.2 2.3 1.9 2.9 3.9 2.6 5.9-.5 3.4-3.2 5.3-6.8 4.8-1.4-.2-2.9-.8-3.6-1.2l.9-3.1c.6.5 2 .9 2.9 1.2 1.7.2 2.6-.6 2.8-1.7.2-1.4-.6-2.2-2-3.4-2.4-2.2-3-4.2-2.9-5.9zm33.4 12.8l-.5-.2-2.2 7.1-3.6-1.1 5.4-17.8c1.2.2 2.6.5 3.9.8 2 .6 3.6 1.4 4.3 2.8.8 1.4.8 2.6.3 4.2-.6 2-2 3.4-4.2 3.7v.2c1.1.9 1.4 2.2 1.1 4.3s-.5 4.5-.3 5.3l-3.7-1.1c-.2-.6.2-2.5.5-4.6.6-2.3.1-3.3-1-3.6zm4.2-4.8c.5-1.5.2-2.8-1.4-3.2-.3-.2-.6-.2-.9-.2l-1.7 5.3.6.2c1.7.6 2.9-.5 3.4-2.1zM270.6 458.4l-7.7-4.8-9.7-8.8-5.3-4.3-5.7-6-6.2-5.9-3.4-3.2-4.3.8-7.7-20 3.6-1.2 16.7 19.5 10.2 11.6 9.7 8.2 2.6-4.3-2.2-17.3-.2-11-2-9.3-2-8.7c-5.9-25.4 4.5-67.5 35.7-68.9.2 0 10.4-.5 10.4-.5l11.5-.5 10.2-1.2 7.9.5 10.8-.9 9.4.5 11.8 1.5 12.5 1.4 9.1 3.9 9.9 1.4 3.9 1.9 3.6 4.5 3.2 8.7 3.1 6.8 1.4 5.6.5 6.7-3.2 1.7-1.2-4.5-2-4.6-.9-5.9-2-5.1-2.5-5.9-3.6-2-2.9-1.2-1.9 1.4 1.7 1.4 4.3 2.3-3.6 1.1-5 .9-4.2 1.2-4.5 1.2-6.7 2.2-5.4 1.7-4.3.6-2.2 2 2 .9 3.9-1.2 3.7-.8h7.1l5.3-.3.9 1.5-4.2.3-4.3.2h-5.3l-3.6 1.5 2.6.8 4.5.2 7.3-.2h4.6l5.7.5 5.1 1.7 4.3 4.2-2.6.6-4.8-.9-3.4-1.7-4.2-.8-2.8.9.8 2.6-2 2.9-4 1.2-5.1-.6-2.9-1.2-.2-2.6-2-1.7-2.5-.6-.3 3.2-2.8 1.5-2-2 .6-1.5-2.2-1.2-2.5 2.9-3.4 3.6-4.5-2.6-.5-6.5 1.2-7.1 2.2-4 6.7-3.2 10.4-3.2 8.7-2.5 2.2-2.8-10.5-1.4-12.1-1.1s-13.6-.6-14.7-.5c-1.2.2-15.6.3-15.6.3l-11.3.2-11.3.6h-8l4.5 2.9 10.5 3.9 6.8 3.4 7.7 4.8-.5 39.1.2 6.2.2 5.6 5.4 2 6.7.2 5.7-.6 2.5-1.4 2-1.7 1.7-.5 1.7 1.5 1.4 2.8 2.2 1.2 2.6.6 1.2-1.2-.2-2.3-3.2-2.2-.6-2.9 2.9.2 3.6 3.7 2.2 2.2-.5 2.9-2.3 2.8-2.8 2-1.7 2.5-3.6 1.7-4.5.6-3.6.2-1.7 2.2-4 1.5-5-.9-3.6-1.1-1.2-2.2-2.8 1.1-5.4-.5-2.5-1.4-2.5-2-.3-2.2-2.3-2.2-3.2.2-5.4 1.9-6.3 1.7-5.9 3.7-6.5 4.8-3.2 4 2.9 2.5 4.3 1.4 5.4 1.9 5.3 2 8.2.6 5.1.3-.5 2.8h-4l-3.6.2-.6 1.4 1.7 3.9 3.6 2.8 4.3 1.7 4.2-.2 5.9 1.9 6.5 1.4 7.3.2 8.5-1.7 5.9-.2 4.8-1.7 4-.6 4-1.2 4.2-2.9 2.9-3.2-4 .2-8-.6-6.8.6-8.4.8-7.1.2-7.6-.3-.8-1.2h-5.9l-4.6-.9-3.7-.5 4-2.2 6.7-.2 5.1.9 5.6-.2h15.9l7.6-.3 6.7-1.4 5.7-1.2 6-2.8 4.6-1.7 2.5 2.2-2.2 4.3-2.5 3.7-4.3 5.3-4.5 3.1-4.5 3.2-5.6 4.3-7.1 2-2.3-.9 2.8-1.1 4-2.8.2-2-4.8.5-2.5.8-6.8 1.9-5.4.3-5.6.2-5.4.2h-6.3l-2.8 1.7 3.1 3.2 5.3-.2 7.1 1.5 5.7-.6 4.2.6-.3 1.4-4.8 1.2-6.8-.3-10.8-.5-9.9-3.7-5.6-4.2-5.4-4-5-4.2-3.7-3.6-3.7-.2-2.8-1.7-5.9-5.1-3.6-4-3.1-6.3 1.9-5.6 8.7-4.3 3.7-1.7 5.7-3.7 1.2-2.2 3.7-1.9 5.3-4 5.6-3.2 4-4.2.9-5.9.3-9-.6-13.3-4.6-4.5-2.8-4.3s-2.8-2.9-3.6-2.9-5.7-2.2-5.7-2.2l-7.7-2.2-6.8-3.4-5.1-2.5-6 .6-3.2 3.2-5.7 16.6-4.2 11 1.5 11 3.2 15.9 5.1 18.3 3.6 18.6 4 20.9 2.8 3.7 4.8 2.8 5.1 2.8 5.7 1.7 7.3 2.9 8.2 2 7.1 1.2 10.4 1.4 8-.2 6.8.5 7.1-1.4 9-2.5 6-2.6 8.4-2.9 7.1-3.2 4.5-2.9 5.6-3.9 2.2-4.5 2.3-4.6 2-5.3 1.2-3.7 1.5-7.3 1.1-4.5 1.9-6.7 1.5-9.3s.6-5.9.6-6.7.9-5.7.9-5.7l.8-4-.2-6.3 1.2-6.8-.2-4.5 1.2-2.5 3.2-.3-.5 4.3-.9 7.9-.6 6.5-.8 6.3-.5 9.6-.9 7.9-1.4 9.4-2.3 12.1-1.9 7.7 1.4 1.7 6.8-5.1 6.3-5.6 5.1-5.9 6.8-8.5 5-8.2 5.7-11 4.5-7.9 1.1-12.1-1.2-12.2-4.8-10.2-6.7-11.5-5.9-8.8-8.8-11.6-8.5-7.1-6.7-6-9.3-6.5-13-4-11-6.7-11.9-2.9-10.8-.9-8.5-1.2-13.9-.5-12.1.9-7.9 1.5-10.2 2.9-8.5-.5 3.2-2.9 2.5-3.6 3.1-3.1 10.4-2.5 13.3-1.7c9.9-.5 37.1-4.8 44.3 2.2l5.7 5.6 16.2 8 4.8-.3 7.9 2.8 9.4 6.3 9.4 7.4 9 9.9 11.6 10.1 5.6 7.9 3.9 10.1 3.6 5.6 2.6-1.5-1.2-6.3-2-8.2-3.2-6.3-2.8-6.8-3.6-7.1-2.8-3.1-4-7.6.8-3.6 6.2 4.5 6.7 9.6 4.3 10.4 5.1 10.8 3.2 17.5 2.2 16.2-.5 16.9-.9 9.1-1.7 8.8-1.2 7.1-4.5 5.1 1.2-6 .2-7.3 1.7-7.7-.5-4.8-3.6.8-2.8 3.9-4.8 9.7-7.4 9.6-8.7 9.1-8.2 9.3-9.1 9-7.1 5.9-8.2 5.7-5.7 3.2-8.5 3.7-6.5.9-9 3.7-11.6 2.2-9.6 2.2-10.2.5-10.8.6-9.7-2.3-11.9-2-10.4-2.5-7.3-4.3-10.1-5.4-2.7-3.4zm175.1 61.1l.5-8-.9-12.4.3-11.9.2-11.3-.2-9.3 3.7-6.7 4.8-12.5 4.3-12.8 2.9-12.1 2.6 2.5-2.9 9.4-.9 14.1 1.2 13.3 8.5 7.1 3.7-6 2.9-12.8 2-13.3.3-8.4-.5-8.5-3.6-6.7 1.2-3.2 3.1 4.8L482 428l.8 12.8-2.2 15.5-4.3 16.7-5.1 6.7-8.7-.2-1.4 3.4 1.2 29.1-.9 10.8 8.7 4.3 2.9 5.9-7.7-1.2-8.8-.6-8.5-.6-4.5 2.8-6.5 3.7-11 .3-10.8 3.6-11 3.7-11.3 1.2-10.2 1.5 1.7-2.6 61.3-25.3z" fill="currentColor"/>
    </symbol></svg>