<?xml version="1.0" encoding="utf-8"?>
<!-- Generator: Adobe Illustrator 18.1.0, SVG Export Plug-In . SVG Version: 6.00 Build 0)  -->
<svg version="1.1" id="Layer_1" xmlns="http://www.w3.org/2000/svg" xmlns:xlink="http://www.w3.org/1999/xlink" x="0px" y="0px"
	 viewBox="0 0 254.3 50" enable-background="new 0 0 254.3 50" xml:space="preserve">
<g>
	<g>
		<polygon fill="#FFFFFF" points="122.6,34.3 122.5,34.6 122.5,31.7 121.6,31.7 121.6,36.2 122.1,36.2 124.1,33.6 124.3,33.4 
			124.2,36.2 125.1,36.2 125.1,31.7 124.6,31.7 		"/>
		<polygon fill="#FFFFFF" points="129.1,33.5 127.4,33.5 127.4,31.7 126.5,31.7 126.5,36.2 127.4,36.2 127.4,34.3 129.1,34.3 
			129.1,36.2 130,36.2 130,31.7 129.1,31.7 		"/>
		<polygon fill="#FFFFFF" points="130.8,32.5 132.2,32.5 132.2,36.2 133.1,36.2 133.1,32.5 134.4,32.5 134.4,31.7 130.8,31.7 		"/>
		<path fill="#FFFFFF" d="M138.1,31.9c-0.2-0.1-0.4-0.2-0.6-0.3c-0.2,0-0.4-0.1-0.6-0.1c-0.6,0-1.1,0.2-1.5,0.6
			c-0.3,0.4-0.5,1-0.5,1.7c0,0.3,0,0.7,0.1,0.9c0.1,0.3,0.2,0.5,0.4,0.7c0.2,0.2,0.4,0.4,0.6,0.5c0.3,0.1,0.5,0.2,0.9,0.2
			c0.3,0,0.6,0,0.9-0.1s0.5-0.2,0.7-0.3l0.1-0.1l-0.4-0.7l-0.1,0.1c-0.1,0.1-0.2,0.2-0.4,0.2c-0.4,0.2-0.9,0.1-1.1,0
			c-0.2-0.1-0.3-0.2-0.4-0.3c-0.1-0.1-0.2-0.3-0.2-0.5c0-0.2-0.1-0.3-0.1-0.5h2.7l0-0.1c0-0.2,0.1-0.4,0.1-0.6
			c0-0.4-0.1-0.7-0.2-0.9C138.4,32.3,138.3,32.1,138.1,31.9z M135.9,33.4c0-0.3,0.2-0.6,0.3-0.7c0.2-0.2,0.4-0.2,0.7-0.2
			c0.3,0,0.5,0.1,0.6,0.2c0.1,0.1,0.2,0.4,0.2,0.7H135.9z"/>
		<path fill="#FFFFFF" d="M141.7,31.6c-0.3,0-0.5,0.1-0.8,0.2c-0.2,0.1-0.3,0.2-0.4,0.3l-0.1-0.4h-0.7v6.2h0.9v-1.7
			c0.1,0,0.2,0.1,0.3,0.1c0.1,0,0.3,0,0.5,0c0.3,0,0.6-0.1,0.8-0.2c0.3-0.1,0.5-0.3,0.7-0.5c0.2-0.2,0.3-0.5,0.4-0.8
			c0.1-0.3,0.1-0.6,0.1-1c0-0.8-0.1-1.4-0.4-1.7C142.8,31.8,142.3,31.6,141.7,31.6z M142.3,35.1c-0.2,0.3-0.5,0.4-0.8,0.4
			c-0.2,0-0.4,0-0.5-0.1c-0.1,0-0.2-0.1-0.3-0.1l0-2c0.1-0.3,0.2-0.5,0.3-0.6c0.2-0.1,0.4-0.2,0.6-0.2c0.2,0,0.3,0,0.5,0.1
			c0.1,0.1,0.2,0.2,0.3,0.3c0.1,0.1,0.1,0.3,0.2,0.4c0,0.2,0.1,0.4,0.1,0.6C142.6,34.4,142.5,34.8,142.3,35.1z"/>
		<polygon fill="#FFFFFF" points="147.3,33.5 145.6,33.5 145.6,31.7 144.7,31.7 144.7,36.2 145.6,36.2 145.6,34.3 147.3,34.3 
			147.3,36.2 148.2,36.2 148.2,31.7 147.3,31.7 		"/>
		<path fill="#FFFFFF" d="M152.5,31.9c-0.2-0.1-0.4-0.2-0.6-0.3c-0.2,0-0.4-0.1-0.6-0.1c-0.6,0-1.1,0.2-1.5,0.6
			c-0.3,0.4-0.5,1-0.5,1.7c0,0.3,0,0.7,0.1,0.9c0.1,0.3,0.2,0.5,0.4,0.7c0.2,0.2,0.4,0.4,0.6,0.5c0.3,0.1,0.5,0.2,0.9,0.2
			c0.3,0,0.6,0,0.9-0.1s0.5-0.2,0.7-0.3l0.1-0.1l-0.4-0.7l-0.1,0.1c-0.1,0.1-0.2,0.2-0.4,0.2c-0.4,0.2-0.9,0.1-1.1,0
			c-0.2-0.1-0.3-0.2-0.4-0.3c-0.1-0.1-0.2-0.3-0.2-0.5c0-0.2-0.1-0.3-0.1-0.5h2.7l0-0.1c0-0.2,0.1-0.4,0.1-0.6
			c0-0.4-0.1-0.7-0.2-0.9C152.8,32.3,152.6,32.1,152.5,31.9z M150.2,33.4c0-0.3,0.2-0.6,0.3-0.7c0.2-0.2,0.4-0.2,0.7-0.2
			c0.3,0,0.5,0.1,0.6,0.2c0.1,0.1,0.2,0.4,0.2,0.7H150.2z"/>
		<polygon fill="#FFFFFF" points="153.7,32.5 155,32.5 155,36.2 155.9,36.2 155.9,32.5 157.2,32.5 157.2,31.7 153.7,31.7 		"/>
		<rect x="158" y="33.6" fill="#FFFFFF" width="2.3" height="0.8"/>
		<polygon fill="#FFFFFF" points="164.4,33.7 164.3,34 164.1,33.7 162.9,31.7 162,31.7 162,36.2 162.9,36.2 162.9,33.5 162.9,33.3 
			162.9,33.5 164,35.2 164.4,35.2 165.5,33.5 165.6,33.2 165.5,33.6 165.5,36.2 166.4,36.2 166.4,31.7 165.6,31.7 		"/>
		<path fill="#FFFFFF" d="M170.9,35.6c0-0.2,0-0.4,0-0.6c0-0.3,0-0.6,0-0.9c0-0.3,0-0.7,0-1c0-0.2,0-0.3-0.1-0.5
			c0-0.2-0.1-0.3-0.2-0.5c-0.1-0.1-0.3-0.3-0.5-0.3c-0.2-0.1-0.4-0.1-0.8-0.1c-0.3,0-0.6,0-0.9,0.1c-0.3,0.1-0.6,0.2-0.8,0.3l-0.1,0
			l0.3,0.7l0.1-0.1c0.1,0,0.2-0.1,0.3-0.1c0.1,0,0.2-0.1,0.3-0.1c0.1,0,0.2,0,0.3-0.1c0.1,0,0.2,0,0.3,0c0.3,0,0.5,0.1,0.6,0.2
			c0.1,0.1,0.2,0.3,0.2,0.6c0,0.1,0,0.2,0,0.3c0,0-0.1,0-0.1,0h-0.2c-0.3,0-0.6,0-0.9,0.1c-0.3,0-0.5,0.1-0.7,0.2
			c-0.2,0.1-0.4,0.3-0.5,0.4c-0.1,0.2-0.2,0.4-0.2,0.7c0,0.2,0,0.4,0.1,0.5c0.1,0.2,0.2,0.3,0.3,0.4c0.1,0.1,0.3,0.2,0.4,0.3
			c0.2,0.1,0.4,0.1,0.5,0.1c0.2,0,0.4,0,0.5-0.1c0.2,0,0.3-0.1,0.4-0.2c0.1-0.1,0.2-0.1,0.3-0.2c0,0,0.1-0.1,0.1-0.1l0.2,0.5h0.7
			l0-0.1C170.9,35.9,170.9,35.8,170.9,35.6z M170,34.9c0,0.1-0.1,0.1-0.1,0.2c-0.1,0.1-0.1,0.1-0.2,0.2c-0.1,0.1-0.2,0.1-0.3,0.1
			c-0.1,0-0.2,0.1-0.4,0.1c-0.2,0-0.4-0.1-0.5-0.2c-0.1-0.1-0.2-0.2-0.2-0.4c0-0.1,0-0.2,0.1-0.3c0.1-0.1,0.2-0.1,0.3-0.2
			c0.1,0,0.3-0.1,0.4-0.1c0.2,0,0.3,0,0.5,0c0.1,0,0.3,0,0.4,0V34.9z"/>
		<polygon fill="#FFFFFF" points="172.3,36.2 173.1,36.2 173.1,32.5 174.9,32.5 174.9,31.7 172.3,31.7 		"/>
		<path fill="#FFFFFF" d="M178.9,35.6c0-0.2,0-0.4,0-0.6c0-0.3,0-0.6,0-0.9c0-0.3,0-0.7,0-1c0-0.2,0-0.3-0.1-0.5
			c0-0.2-0.1-0.3-0.2-0.5c-0.1-0.1-0.3-0.3-0.5-0.3c-0.2-0.1-0.4-0.1-0.8-0.1c-0.3,0-0.6,0-0.9,0.1c-0.3,0.1-0.6,0.2-0.8,0.3l-0.1,0
			l0.3,0.7l0.1-0.1c0.1,0,0.2-0.1,0.3-0.1c0.1,0,0.2-0.1,0.3-0.1c0.1,0,0.2,0,0.3-0.1c0.1,0,0.2,0,0.3,0c0.3,0,0.5,0.1,0.6,0.2
			c0.1,0.1,0.2,0.3,0.2,0.6c0,0.1,0,0.2,0,0.3c0,0-0.1,0-0.1,0h-0.2c-0.3,0-0.6,0-0.9,0.1c-0.3,0-0.5,0.1-0.7,0.2
			c-0.2,0.1-0.4,0.3-0.5,0.4c-0.1,0.2-0.2,0.4-0.2,0.7c0,0.2,0,0.4,0.1,0.5c0.1,0.2,0.2,0.3,0.3,0.4c0.1,0.1,0.3,0.2,0.4,0.3
			c0.2,0.1,0.4,0.1,0.5,0.1c0.2,0,0.4,0,0.5-0.1c0.2,0,0.3-0.1,0.4-0.2c0.1-0.1,0.2-0.1,0.3-0.2c0,0,0.1-0.1,0.1-0.1l0.2,0.5h0.7
			l0-0.1C179,35.9,179,35.8,178.9,35.6z M178.1,34.9c0,0.1-0.1,0.1-0.1,0.2c-0.1,0.1-0.1,0.1-0.2,0.2c-0.1,0.1-0.2,0.1-0.3,0.1
			c-0.1,0-0.2,0.1-0.4,0.1c-0.2,0-0.4-0.1-0.5-0.2c-0.1-0.1-0.2-0.2-0.2-0.4c0-0.1,0-0.2,0.1-0.3c0.1-0.1,0.2-0.1,0.3-0.2
			c0.1,0,0.3-0.1,0.4-0.1c0.2,0,0.3,0,0.5,0c0.1,0,0.2,0,0.4,0V34.9z"/>
		<path fill="#FFFFFF" d="M182.5,33.8c0.1-0.1,0.3-0.2,0.4-0.3c0.1-0.2,0.2-0.4,0.2-0.6c0-0.8-0.5-1.2-1.5-1.2c-0.3,0-0.6,0-0.9,0.1
			c-0.2,0.1-0.4,0.2-0.6,0.3l-0.1,0l0.3,0.7l0.1-0.1c0.1-0.1,0.2-0.1,0.4-0.2c0.2-0.1,0.4-0.1,0.6-0.1c0.3,0,0.5,0,0.6,0.1
			c0.1,0.1,0.2,0.2,0.2,0.4c0,0.1,0,0.1-0.1,0.2c0,0.1-0.1,0.1-0.2,0.2c-0.1,0.1-0.2,0.1-0.2,0.1c-0.1,0-0.2,0-0.3,0h-0.7v0.8h0.6
			c0.4,0,0.6,0.1,0.8,0.2c0.1,0.1,0.2,0.2,0.2,0.4c0,0.2-0.1,0.4-0.2,0.5c-0.2,0.1-0.4,0.2-0.7,0.2c-0.2,0-0.4,0-0.6-0.1
			c-0.2,0-0.3-0.1-0.4-0.2l-0.1-0.1l-0.3,0.8l0.1,0c0.2,0.1,0.3,0.1,0.5,0.2c0.2,0.1,0.4,0.1,0.7,0.1c0.3,0,0.6,0,0.8-0.1
			c0.2-0.1,0.4-0.2,0.6-0.3c0.2-0.1,0.3-0.3,0.4-0.4c0.1-0.2,0.1-0.4,0.1-0.5c0-0.3-0.1-0.6-0.2-0.8C182.9,34,182.7,33.9,182.5,33.8
			z"/>
		<polygon fill="#FFFFFF" points="185.4,34.3 185.2,34.6 185.2,31.7 184.3,31.7 184.3,36.2 184.9,36.2 186.8,33.6 187,33.4 
			187,36.2 187.9,36.2 187.9,31.7 187.3,31.7 		"/>
		<polygon fill="#FFFFFF" points="191.8,33.5 190.1,33.5 190.1,31.7 189.2,31.7 189.2,36.2 190.1,36.2 190.1,34.3 191.8,34.3 
			191.8,36.2 192.7,36.2 192.7,31.7 191.8,31.7 		"/>
		<polygon fill="#FFFFFF" points="200.4,35.4 199.1,35.4 199.1,31.7 198.2,31.7 198.2,35.4 197,35.4 197,31.7 196.1,31.7 
			196.1,36.2 201.3,36.2 201.3,31.7 200.4,31.7 		"/>
		<polygon fill="#FFFFFF" points="203.6,34.3 203.5,34.6 203.5,31.7 202.6,31.7 202.6,36.2 203.2,36.2 205.1,33.6 205.3,33.4 
			205.3,36.2 206.2,36.2 206.2,31.7 205.6,31.7 		"/>
		<polygon fill="#FFFFFF" points="210.1,33.5 208.4,33.5 208.4,31.7 207.5,31.7 207.5,36.2 208.4,36.2 208.4,34.3 210.1,34.3 
			210.1,36.2 211,36.2 211,31.7 210.1,31.7 		"/>
		<polygon fill="#FFFFFF" points="215.4,34.3 215.3,34.6 215.3,31.7 214.4,31.7 214.4,36.2 214.9,36.2 216.9,33.6 217,33.4 
			217,36.2 217.9,36.2 217.9,31.7 217.4,31.7 		"/>
		<path fill="#FFFFFF" d="M224.6,31.7h-2.8l0,0.1c0,0.6,0,1.1-0.1,1.5c-0.1,0.4-0.1,0.8-0.2,1.1c-0.1,0.3-0.1,0.5-0.2,0.7
			c0,0.1-0.1,0.2-0.1,0.3h-0.6v1.9h0.7l0.1-1.1h3l0.1,1.1h0.7v-1.9h-0.6V31.7z M223.7,35.4h-1.6c0.1-0.1,0.1-0.3,0.2-0.5
			c0.1-0.3,0.1-0.5,0.2-0.8c0-0.3,0.1-0.6,0.1-0.8c0-0.3,0-0.5,0.1-0.7h1.1V35.4z"/>
		<polygon fill="#FFFFFF" points="227.2,34.3 227.1,34.6 227.1,31.7 226.2,31.7 226.2,36.2 226.7,36.2 228.7,33.6 228.9,33.4 
			228.9,36.2 229.7,36.2 229.7,31.7 229.2,31.7 		"/>
		<path fill="#FFFFFF" d="M233.9,35.2c-0.1,0.1-0.2,0.1-0.4,0.2c-0.1,0.1-0.3,0.1-0.5,0.1c-0.2,0-0.4,0-0.5-0.1
			c-0.1-0.1-0.3-0.2-0.4-0.3c-0.1-0.1-0.2-0.3-0.2-0.5c0-0.2-0.1-0.4-0.1-0.6c0-1,0.4-1.5,1.1-1.5c0.2,0,0.3,0,0.5,0.1
			c0.2,0,0.3,0.1,0.4,0.2l0.1,0.1l0.3-0.8l-0.1,0c-0.2-0.1-0.3-0.1-0.5-0.2c-0.2,0-0.4-0.1-0.7-0.1c-0.6,0-1.1,0.2-1.5,0.6
			c-0.3,0.4-0.5,1-0.5,1.7c0,0.3,0,0.7,0.1,0.9c0.1,0.3,0.2,0.5,0.3,0.7c0.2,0.2,0.4,0.4,0.6,0.5c0.2,0.1,0.5,0.2,0.9,0.2
			c0.3,0,0.5,0,0.8-0.1c0.2-0.1,0.5-0.2,0.6-0.3l0.1-0.1l-0.3-0.7L233.9,35.2z"/>
		<polygon fill="#FFFFFF" points="237,33.8 237.3,33.6 238.7,31.7 237.7,31.7 236.3,33.5 236.1,33.6 236.1,31.7 235.2,31.7 
			235.2,36.2 236.1,36.2 236.1,34.3 236.4,34.3 237.8,36.2 238.9,36.2 237.3,34.1 		"/>
		<path fill="#FFFFFF" d="M242.7,32.3c-0.2-0.2-0.4-0.4-0.6-0.5c-0.2-0.1-0.5-0.2-0.9-0.2c-0.6,0-1.1,0.2-1.5,0.6
			c-0.3,0.4-0.5,1-0.5,1.7c0,0.3,0,0.7,0.1,0.9c0.1,0.3,0.2,0.5,0.4,0.7c0.2,0.2,0.4,0.4,0.6,0.5c0.3,0.1,0.5,0.2,0.9,0.2
			c0.6,0,1.1-0.2,1.5-0.6c0.3-0.4,0.5-1,0.5-1.7c0-0.3,0-0.7-0.1-0.9C243,32.7,242.8,32.5,242.7,32.3z M242,35.1
			c-0.2,0.2-0.4,0.4-0.8,0.4c-0.2,0-0.3,0-0.5-0.1c-0.1-0.1-0.2-0.2-0.3-0.3c-0.1-0.1-0.1-0.3-0.2-0.5c0-0.2-0.1-0.4-0.1-0.6
			c0-1,0.3-1.5,1-1.5h0c0.2,0,0.4,0,0.5,0.1c0.1,0.1,0.2,0.2,0.3,0.3c0.1,0.1,0.1,0.3,0.2,0.5c0,0.2,0.1,0.4,0.1,0.6
			C242.2,34.5,242.1,34.9,242,35.1z"/>
		<path fill="#FFFFFF" d="M247.4,34.1c-0.1-0.1-0.3-0.2-0.5-0.3c0.2-0.1,0.3-0.2,0.4-0.4c0.1-0.2,0.2-0.4,0.2-0.6
			c0-0.4-0.1-0.7-0.4-0.9c-0.3-0.2-0.7-0.3-1.3-0.3c-0.3,0-0.6,0-0.8,0c-0.2,0-0.4,0-0.5,0l-0.2,0v4.4l0.1,0c0.2,0,0.4,0,0.6,0
			c0.2,0,0.5,0,0.7,0c0.7,0,1.2-0.1,1.5-0.3c0.3-0.2,0.5-0.6,0.5-1.1C247.7,34.6,247.6,34.3,247.4,34.1z M245.2,32.5
			c0.1,0,0.1,0,0.2,0c0.1,0,0.2,0,0.4,0c0.4,0,0.6,0.1,0.7,0.1c0.1,0.1,0.2,0.2,0.2,0.4c0,0.1,0,0.1-0.1,0.2c0,0.1-0.1,0.1-0.2,0.2
			c-0.1,0.1-0.1,0.1-0.2,0.1c-0.1,0-0.2,0-0.3,0h-0.7V32.5z M246.5,35.3c-0.2,0.1-0.4,0.1-0.8,0.1c-0.1,0-0.3,0-0.4,0
			c-0.1,0-0.1,0-0.2,0v-1.2h0.6c0.4,0,0.6,0.1,0.8,0.2c0.1,0.1,0.2,0.2,0.2,0.4C246.8,35.1,246.7,35.2,246.5,35.3z"/>
	</g>
	<g>
		<path fill="#FFFFFF" d="M124.8,18.1h6.5c0.5,0,0.8-0.1,1-0.3c0.2-0.2,0.3-0.5,0.3-0.9v-0.4c0-0.4-0.1-0.7-0.3-1
			c-0.2-0.2-0.5-0.3-1-0.3h-6.5l-3.1,0V12h10.5c1.2,0,2.2,0.3,2.7,0.9c0.6,0.6,0.9,1.4,0.9,2.3v2.9c0,1-0.3,1.8-0.9,2.3
			c-0.6,0.5-1.5,0.8-2.5,0.8h0l5.4,6h-4.1l-5.2-6h-3.6v6h-3.2v-9.2"/>
		<path fill="#FFFFFF" d="M171.9,27.2V24h9.6c0.5,0,0.8-0.1,1-0.3c0.2-0.2,0.3-0.5,0.3-0.8v-0.5c0-0.8-0.5-1.2-1.4-1.2h-6
			c-1.2,0-2.1-0.3-2.7-0.8c-0.6-0.6-0.9-1.3-0.9-2.3v-2.9c0-1.1,0.3-1.9,1-2.4c0.6-0.5,1.5-0.8,2.6-0.8h10.4v3.1h-9.6
			c-0.4,0-0.7,0-0.9,0.2c-0.2,0.2-0.3,0.5-0.3,0.8v0.7c0,0.7,0.4,1.1,1.2,1.1h6.1c1.2,0,2.1,0.3,2.7,0.9c0.6,0.6,0.9,1.3,0.9,2.3
			v2.8c0,1-0.3,1.8-0.8,2.4c-0.6,0.6-1.5,0.9-2.8,0.9H171.9z"/>
		<polygon fill="#FFFFFF" points="200.9,12 200.9,18 193.3,18 193.3,12 190.1,12 190.1,27.2 193.3,27.2 193.3,21.2 200.9,21.2 
			200.9,27.2 204.1,27.2 204.1,12 		"/>
		<path fill="#FFFFFF" d="M211.6,12v15.2h-3.2V12H211.6z"/>
		<polygon fill="#FFFFFF" points="226.8,12 226.8,22 219.2,12 219.2,12 216,12 216,27.2 219.2,27.2 219.2,17.3 226.8,27.2 
			226.8,27.2 230,27.2 230,12 		"/>
		<path fill="#FFFFFF" d="M151.1,12v10.9c0,0.4-0.1,0.7-0.3,0.8c-0.2,0.2-0.5,0.3-1,0.3h-5.2c-0.5,0-0.8-0.1-1-0.3
			c-0.2-0.2-0.3-0.5-0.3-0.8V12h-3.2v11.9c0,1,0.3,1.8,0.8,2.4c0.6,0.6,1.5,0.9,2.8,0.9h0.3h6.4h0.3c1.3,0,2.2-0.3,2.8-0.9
			c0.6-0.6,0.8-1.4,0.8-2.4V12H151.1z"/>
		<path fill="#FFFFFF" d="M167.4,21.2h-8.8V18h8.8V21.2z"/>
		<path fill="#FFFFFF" d="M244.6,27.2h3.2L242,12h-3.2l-5.8,15.2h3.2l1-2.8h6.2L244.6,27.2z M238.5,21.3l1.9-5.1l1.9,5.1H238.5z"/>
	</g>
	<linearGradient id="SVGID_1_" gradientUnits="userSpaceOnUse" x1="22.7468" y1="25" x2="91.8149" y2="25">
		<stop  offset="0" style="stop-color:#FCF02C"/>
		<stop  offset="1" style="stop-color:#FCD22E"/>
	</linearGradient>
	<path fill="url(#SVGID_1_)" d="M84.7,45.5H22.7L29.9,25L22.7,4.5h61.9L91.8,25L84.7,45.5z M28.2,41.7h53.7L87.7,25L81.9,8.3H28.2
		L34,25L28.2,41.7z"/>
	<path fill="none" stroke="#231F20" stroke-miterlimit="10" d="M57.6,24.9"/>
	<path fill="none" stroke="#231F20" stroke-miterlimit="10" d="M57.6,24.9"/>
	<path fill="none" stroke="#231F20" stroke-miterlimit="10" d="M57.6,24.9"/>
	<path fill="none" stroke="#231F20" stroke-miterlimit="10" d="M57.6,24.9"/>
	<polygon fill="#FFFFFF" points="93.3,4.5 89.2,4.5 96.3,25 89.2,45.5 93.3,45.5 100.4,25 	"/>
	<polygon fill="#FFFFFF" points="101.5,4.5 97.4,4.5 104.6,25 97.4,45.5 101.5,45.5 108.7,25 	"/>
	<polygon fill="#FFFFFF" points="10.7,4.5 6.6,4.5 13.7,25 6.6,45.5 10.7,45.5 17.8,25 	"/>
	<polygon fill="#FFFFFF" points="18.9,4.5 14.8,4.5 22,25 14.8,45.5 18.9,45.5 26.1,25 	"/>
	<path fill="#FFFFFF" d="M53.2,20c0.5,0,0.9,0.1,1.2,0.4c0.2,0.3,0.3,0.6,0.3,1.1v0.5c0,0.4-0.1,0.8-0.3,1c-0.2,0.2-0.6,0.3-1.1,0.3
		l-11.8,0v10.3H46v-6.8h3.5l5.8,6.8h17.9c1.4,0,2.5-0.3,3.1-1c0.6-0.7,0.9-1.6,0.9-2.7v-3.1c0-1.1-0.3-1.9-1-2.6c-0.7-0.6-1.7-1-3-1
		h-6.9c-0.9,0-1.4-0.4-1.4-1.3v-0.8c0-0.4,0.1-0.7,0.4-0.9c0.3-0.2,0.6-0.2,1.1-0.2h10.8v-3.5H65.4c-1.2,0-2.2,0.3-3,0.9
		c-0.7,0.6-1.1,1.5-1.1,2.7v3.2c0,1.1,0.3,1.9,1,2.5c0.6,0.6,1.7,0.9,3,0.9h6.8c1,0,1.5,0.5,1.5,1.3v0.6c0,0.4-0.1,0.7-0.3,0.9
		c-0.2,0.2-0.6,0.3-1.1,0.3h-15l-2.8-3.1h0c1.2,0,2.1-0.3,2.8-0.9c0.7-0.6,1.1-1.5,1.1-2.6v-3.2c0-1.1-0.3-2-1-2.6
		c-0.7-0.7-1.7-1-3.1-1H41.5V20L53.2,20z"/>
</g>
</svg>
