<?xml version="1.0" encoding="utf-8"?>
<!-- Generator: Adobe Illustrator 18.1.1, SVG Export Plug-In . SVG Version: 6.00 Build 0)  -->
<svg version="1.0" id="Слой_1" xmlns="http://www.w3.org/2000/svg" xmlns:xlink="http://www.w3.org/1999/xlink" x="0px" y="0px"
	 viewBox="0 0 320 64" enable-background="new 0 0 320 64" xml:space="preserve">
<polygon fill="#616161" points="32,0 41.4,19.1 62.4,22.1 47.2,36.9 50.8,57.9 32,48 13.2,57.9 16.8,36.9 1.6,22.1 22.6,19.1 "/>
<polygon fill="#616161" points="96,0 105.4,19.1 126.4,22.1 111.2,36.9 114.8,57.9 96,48 77.2,57.9 80.8,36.9 65.6,22.1 86.6,19.1 
	"/>
<polygon fill="#616161" points="160,0 169.4,19.1 190.4,22.1 175.2,36.9 178.8,57.9 160,48 141.2,57.9 144.8,36.9 129.6,22.1 
	150.6,19.1 "/>
<polygon fill="#616161" points="224,0 233.4,19.1 254.4,22.1 239.2,36.9 242.8,57.9 224,48 205.2,57.9 208.8,36.9 193.6,22.1 
	214.6,19.1 "/>
<polygon fill="#616161" points="288,0 297.4,19.1 318.4,22.1 303.2,36.9 306.8,57.9 288,48 269.2,57.9 272.8,36.9 257.6,22.1 
	278.6,19.1 "/>
</svg>
