<svg xmlns="http://www.w3.org/2000/svg" viewBox="-19.6 258.7 453.2 276.6"><path d="M271.2 535.3c-1.5 0-3.1-.5-4.4-1.4-2.9-2-4-5.6-2.9-8.9l28.2-79.5-303.5 20.8c-2.3.1-4.5-.7-6.1-2.4-1.6-1.6-2.3-3.9-2.1-6.2l15-132.7c.2-2 1.3-3.9 2.9-5.2 1.6-1.3 3.7-1.8 5.7-1.6l296.9 37-18.2-87.2c-.7-3.3.9-6.7 3.8-8.3 2.9-1.6 6.6-1.1 9 1.2l135.7 130.6c1.6 1.5 2.4 3.6 2.3 5.8-.1 2.2-1.1 4.2-2.7 5.6L276.2 533.5c-1.5 1.2-3.2 1.8-5 1.8zm32.1-105.8c2.4 0 4.7 1.1 6.1 3 1.6 2.1 2 4.8 1.1 7.2l-22.6 63.7 126.5-106.8-111.6-107.4 15.3 73.4c.5 2.4-.2 5-1.9 6.8-1.7 1.8-4.1 2.7-6.6 2.4L9.8 334.4l-13 116.1 306-21h.5z" fill="currentColor"/></svg>
