<?xml version="1.0" standalone="no"?>
<!DOCTYPE svg PUBLIC "-//W3C//DTD SVG 20010904//EN"
 "http://www.w3.org/TR/2001/REC-SVG-20010904/DTD/svg10.dtd">
<svg version="1.0" xmlns="http://www.w3.org/2000/svg"
 width="57.000000pt" height="54.000000pt" viewBox="0 0 57.000000 54.000000"
 preserveAspectRatio="xMidYMid meet">
<metadata>
Created by potrace 1.10, written by Peter Selinger 2001-2011
</metadata>
<g transform="translate(0.000000,54.000000) scale(0.100000,-0.100000)"
fill="#000000" stroke="none">
<path d="M60 527 c0 -8 -9 -22 -20 -32 -18 -17 -20 -31 -20 -181 0 -98 4 -165
10 -169 14 -8 13 -41 -2 -64 -9 -15 -9 -23 2 -36 34 -41 60 -45 274 -42 222 4
236 8 236 57 0 19 6 30 18 33 9 3 2 5 -15 6 -24 1 -37 -5 -49 -24 -16 -24 -21
-25 -118 -25 -67 0 -106 -4 -114 -12 -10 -10 -17 -10 -32 0 -11 6 -47 12 -79
12 -33 0 -63 5 -66 10 -4 6 -6 72 -6 147 0 81 -4 142 -10 149 -7 9 -7 19 0 33
6 11 11 31 11 45 0 29 31 50 60 41 12 -4 22 0 29 12 10 17 12 17 21 1 21 -34
69 -10 70 35 0 25 -96 25 -103 0 -4 -17 -5 -17 -6 0 -1 13 -10 17 -46 17 -31
0 -45 -4 -45 -13z"/>
<path d="M283 509 c-15 -39 -10 -41 108 -36 71 3 98 1 110 -10 19 -16 69 -8
69 11 0 15 -57 37 -76 29 -10 -4 -17 2 -21 16 -7 26 -20 27 -28 1 -3 -11 -15
-20 -26 -20 -12 0 -19 7 -19 20 0 17 -7 20 -53 20 -50 0 -53 -2 -64 -31z"/>
<path d="M523 404 c-41 -47 -27 -94 28 -94 17 0 19 8 19 60 0 68 -11 75 -47
34z"/>
<path d="M515 286 c-15 -11 -17 -21 -11 -71 7 -64 19 -85 47 -85 16 0 19 8 19
46 0 33 -5 51 -17 60 -17 13 -17 13 0 14 11 0 17 8 17 25 0 28 -24 34 -55 11z"/>
</g>
</svg>
