<svg xmlns="http://www.w3.org/2000/svg" viewBox="0 0 618 148"><path fill="currentColor" d="M21.042 23.056C7.707 36.76.482 55.104.482 74.186c0 20.75 7.04 38.906 22.418 52.797 14.45 13.15 32.977 20.564 52.428 20.564 11.302 0 20.01-2.777 32.052-6.484v-43.54c-7.595 9.078-19.45 14.82-31.308 14.82-22.604 0-37.793-15.935-37.793-37.98 0-21.674 15.008-38.717 37.233-38.717 5.115 0 10.14.962 14.83 2.73 5.816-10.463 11.287-20.86 17.004-30.905C96.61 3.04 85.872.453 74.214.453c-19.636 0-39.462 8.52-53.172 22.604zM212.464 40.1c-6.67-5.557-15.194-9.265-24.083-9.265-6.67 0-15.563 3.893-15.563 11.672 0 8.15 9.818 11.302 16.12 13.336l9.262 2.778c19.45 5.74 34.455 15.56 34.455 38.164 0 13.895-3.333 28.16-14.45 37.607-10.932 9.265-25.567 13.156-39.646 13.156-17.6 0-34.832-5.926-49.09-15.934l15.562-29.27c9.08 7.965 19.82 14.45 32.232 14.45 8.52 0 17.598-4.257 17.598-14.08 0-10.187-14.265-13.71-22.044-15.933-22.79-6.486-37.793-12.413-37.793-39.46 0-28.344 20.195-46.87 48.17-46.87 14.08 0 31.308 4.446 43.72 11.486L212.464 40.1zM335.822 40.1c-6.67-5.557-15.193-9.265-24.082-9.265-6.67 0-15.564 3.893-15.564 11.672 0 8.15 9.818 11.302 16.12 13.336l9.262 2.778c19.45 5.74 34.456 15.56 34.456 38.164 0 13.895-3.333 28.16-14.45 37.607-10.933 9.265-25.567 13.156-39.646 13.156-17.598 0-34.83-5.926-49.09-15.934l15.563-29.27c9.08 7.965 19.822 14.45 32.233 14.45 8.52 0 17.598-4.257 17.598-14.08 0-10.187-14.265-13.71-22.044-15.933-22.79-6.486-37.793-12.413-37.793-39.46 0-28.344 20.196-46.87 48.17-46.87 14.08 0 31.31 4.446 43.72 11.486L335.823 40.1zM459.177 40.1c-6.67-5.557-15.194-9.265-24.083-9.265-6.67 0-15.564 3.893-15.564 11.672 0 8.15 9.818 11.302 16.12 13.336l9.263 2.778c19.45 5.74 34.455 15.56 34.455 38.164 0 13.895-3.332 28.16-14.45 37.607-10.932 9.265-25.566 13.156-39.646 13.156-17.597 0-34.83-5.926-49.09-15.934l15.563-29.27c9.078 7.965 19.82 14.45 32.232 14.45 8.52 0 17.598-4.257 17.598-14.08 0-10.187-14.265-13.71-22.044-15.933-22.788-6.486-37.793-12.413-37.793-39.46.005-28.344 20.195-46.87 48.17-46.87 14.08 0 31.31 4.446 43.72 11.486L459.177 40.1zM617.262 143.84H576.8l-34.276-53.727h-.37v53.727h-36.31V4.154h54.282c27.6 0 48.536 13.155 48.536 42.98 0 19.266-10.743 35.938-30.564 39.456l39.164 57.25zM542.15 66.774h3.52c11.857 0 25.192-2.223 25.192-17.412s-13.335-17.413-25.19-17.413h-3.523v34.824z"/></svg>
