<svg xmlns="http://www.w3.org/2000/svg" viewBox="49 199 440 349"><path d="M485.4 382.5c-2.5 10.1-2.2 22.1-13.9 18.9l-.2-16.9c2.8-10.8 4.3-20.9 3.9-32-1.2-30.5-5.3-59.6-25.1-83.9l-13.9-17.2-6.7-7.7-9.1-6.3-7.9-7.7-12.1-7.6-15.8-8-14.9-3.9s-18.1-3.2-20.4-2.6c-2.3.6-13.5-.2-13.5-.2l-12.4.5-15.8 3.9c-12.5 3.1-24.8 5.3-36.7 11.5-31.6 16.2-51.4 42.4-66.8 73.7l-4.5 12.5-2.8 12.1-5.9 8.2-4-4.5.8-6.2 4-13 3.6-10.7c4.5-9.4 8.8-18.9 14.9-27.5 9-13.2 25.8-36.4 40.4-43.5l28-13.6 19.8-7.9 22.3-2.9c44.7-6 83.7 13.8 116.4 42.6 36.9 32.2 60.4 91.8 48.3 139.9zm-289.3-37.9l8.5-5.6 10.5-5.7 7.9-4.3 6.3-4.3-.2 2.9-7.1 5.3-11.1 7-8.4 5.7-8 5.3-6.3 4-3.9 2.2-3.1-2.5 6.7-4.5 8.2-5.5zm10.6-21l15.2-8.8 13.6-6.7 13.2-7.9 6-2 3.1 2.8.2.8.5-.5c1.1-1.1 2.8-2.6 2.8-2.6l3.9-2 3.7-.3 2.6 5.1-3.1 9-8.2 8-8.2 10.2-7 6.7-10.6 10.6-9.3 7.9-9.9 9.7-11.8 10.2-5 3.6-2.9.3-3.2 2 .6 4.5-6.3 1.2-3.6.6-3.6 3.6-2.2 1.4-6.3 4.3-3.6 7.6-4.8 10.2-8.5 15.5-16.6 7.9-12.5 4-9.7.5-7.4-.2-6.7-1.7-1.9-5.3 2.8 2.5 6.8.9 6.7-.2 8.5-.6 7.6-1.9 6.5-4.2 5-4.2 3.2-4.3 5.6-6.3 2.5-5.6 3.7-5.7-5 2.6-5.3 1.7 5.9-6.8 2.9-6 8.5-6.8 6.3-5.3 7.6-5.3 4.3-2.2-2.2-2.5 4.2-1.9 5.1-2.5 6.7-3.6 6.7-6.3 6.8-5.1 6.7-5 7.6-6.8 6.2-5 4.8-5.3 1.1-.8-.6-3.6.6-6.7 2.9.9.5 3.6v2.9l4.2-3.9 3.6-3.4 4.8-5.6.5-1.5-1.4.9 1.4-5.4.6-5.6-5.6-1.5-5.6 3.6-6 3.7-9.4 6.7-6.5 3.9-13.6 11.8-13.9 7.7-5.3 3.9-4.5-1.2-5.1 2.2-9.1 7.1-6.3 4.6-8.5 8.2-5.9 5.4-7 5.9-5.9 5.6-5.9 4-10.5 8.2-8.5 6.3-6 5.6-4.5 5.1L96 417l-10.4 9-16.9 13.5-6.2 6.3-11.3-2.2 9.9-8.8 12.9-9.7 15.9-11 8.8-5.9 10.7-9.7 10.8-8.8 11.5-11.3 10.2-7.4 11.1-8.5 8.7-9.7 13.6-8.7 13.5-8.5 17.9-12zm50.3-10.1l2.9-.3 3.2-2.8 1.9-4 1.4-3.7-1.2-2.8-4 .8-3.6 1.2 1.2 5.6-1.2 4.3-1.7 1.2 1.1.5zM65.9 471.4l10.5.6 13.8-.5 8.2-5.3 11-8.8 10.7-8.8 12.7-4.5 14.4-3.4 10.5-3.6 5.9-3.4 5.9-4.3 3.1-3.4 3.7-4.3 2.5-5.1 3.7-4.6 4.2-5 3.1-6.3-3.6 1.7-1.2-2 2.6-5.9 7-2.9 4.8-2 6.3-3.9 6.7-1.9 6-5.1 4.2-3.6 3.1-3.7 2.3-4.6 1.2-2.9.5-4-.2-2.5-2-2.8 2.5.2 3.2 1.1 2.9 3.9-.8 6.3-5.6 6.7-4.2 6.5-6.7 5.3-7.3 6.3-9 4.3-7.1 7.6-5.3 4-4.3 10.1-8.7 9.1-7.4 7.1-11.1 6.2-6 3.2-8 2.3-8.5 2.5-7.1 2.6-9.3 7-2 4.5-1.9 4.8-6.7 5.7-8.2 4.3-9.7 2.3-8.4 2.9-7.4.9-9.3-.2-4.6-1.5-9-3.2-1.2-3.1 7.1 1.2 5.3 2.2 5 .6 5-.2 1.2-2.2-2.5-2.2-5.9-.2-5.3-.8-12.2-3.4.6-2.5 7.7 2.5 8.6 2.1zm32.8 58c.9.2 11.3 1.4 11.3 1.4l14.2 1.7 19.7.2 17.3-1.1 15.2-1.2 23.5-5.9 3.6-9.1 2.2-20.4 1.4-21.4-2-17.5-5-14.5-6.3-11.8-2.5-10.2 6.3-10.2 5.3 11 4.8 11.6 6.8 10.4 7.4 11 8.4 9.4 10.7 8.5 10.8 5.7.9 4.8-6.3-2.2-5.1-2.9-9-7.7-7.9-5.3-6.3-1.2-.6 7.7-.5 17-.5 17.2-1.2 16.4-.8 10.7-3.7 5.6-.5-3.7-5.4 1.7-3.7 1.4-9.4 2.2-12.8 1.2-15-.9-14.5-1.4-16.7.6c-9.9.5-34.2 2.2-40.5-6.7 1-1 4.1-2.4 6.4-2.1zm165.3 1.7l6-1.2 4.5-4 4-5.1 2.5-6.5-.9-7-1.5-7.4-4.5-4.3 2.9-.2 3.6 2.9 3.2 7 1.2 9-2.2 6.3-2.3 4.5-2.2 4-3.6 1.5 1.7 1.7 3.6 1.7-2.5.9-4-2.2-2.9-.3-5 .6-5.9.9-5-.8-4.3-3.4 6.2.9 7.4.5zm12.8-266c.6-.3 1.2-.6 1.4-.9l1.7 2.6c-.5.5-1.2 1.1-2.3 1.7-4.3 2-8.2-.5-10.4-5.3-2.9-6.3-.6-10.5 2.6-12.2 1.2-.6 2-.6 2.5-.6l.8 2.9c-.5 0-.9.2-1.7.5-1.9.9-2.8 3.2-.8 7.6 1.9 3.7 4.2 4.6 6.2 3.7zm18.6 104.7l3.6-.9 2-.8 4.8.5 4.3.9-1.1 2.3-4.3.5-6 .2-5.7-.2-3.2-.9-1.2-1.5 3.4.5 3.4-.6zm-8.8-9.1l-2.9.5-2.7-.2-4.8.9-2.8-2.8 1.4-.9 3.6-1.9 4 .2 2.6.5 4.2-.6 2.9-.6 2.2.2 3.7-2.3s1.2.2 2.2.2c.6 0 1.2.2 1.2.2l-5.6-1.2-4.3-.2-3.7-.5-.8-1.7h4.2l6-.3 4.6.9 3.2 1.1 1.7 3.7 2.8 2.8-4 1.2-4.6.6-.5 2.5-.6 1.5-3.7 1.9-6.5 1.1-2.6-3.6-.4-3.2zm49.5 105.7l-2.9-.9-3.7-.8-2.9-2.3 2-1.4 4.3.8 6.8-.8 5.9.5 3.6.5-1.5 3.4-4.6.9-7 .1zm55.1-99.5l3.6-1.2h3.2l-.5 1.5-3.7.6-4.6-.5.9-.3c.6.1 1.1-.1 1.1-.1zm-17.2 6l-4-1.2-2.8-.5-2-2 1.2-1.2 2.8 1.1 2.9.2 3.6.8 4 .2 4 .9-1.4 1.4-4.2.6-4.1-.3zm18.4 41.7l.6 2.6.6 6.8 1.4 6.2-1.2-3.6-2.6-3.2-2.2-2.6-3.1-2.5-4.8-1.2-3.7-1.5-5.3-1.7-1.5-3.2 2.5-1.4 3.4 2.2 5.4 2 4 .5 6.5.6zm-94.5-164.1c2.8.9 4 2.8 4.3 4.6.6 3.4-1.4 6-5 6.8-1.4.3-2.9.2-3.7 0l-.2-3.2c.8.3 2.2.3 3.2.2 1.7-.3 2.3-1.4 2.2-2.6-.3-1.4-1.2-1.9-2.9-2.5-2.8-1.1-4.2-2.8-4.5-4.5-.6-2.9.9-5.9 4.8-6.7 1.2-.3 2.5-.2 2.9.2v3.2c-.6-.2-1.4-.5-2.5-.2-1.5.3-2 1.4-1.9 2.3.5 1.2 1 1.7 3.3 2.4zm30.6-2.4c2.5 1.4 3.4 3.4 3.4 5.4 0 3.4-2.5 5.7-6.2 5.7-1.5 0-2.9-.5-3.6-.8l.5-3.2c.8.5 2 .6 3.1.6 1.7 0 2.5-.9 2.5-2.2 0-1.4-.9-2-2.5-3.1-2.5-1.5-3.6-3.6-3.6-5.3 0-2.9 2-5.6 5.9-5.6 1.2 0 2.5.3 2.9.6l-.6 3.2c-.5-.3-1.4-.6-2.3-.6-1.5 0-2.3.9-2.3 2 .3 1.4.8 2 2.8 3.3zm24.3-1.1c.5-2.9 2.8-5.3 6.7-4.6 1.2.2 2.3.6 2.8 1.1l-.9 2.9c-.5-.5-1.2-.8-2.2-.9-1.5-.2-2.5.6-2.5 1.7-.2 1.1.3 1.7 2.2 3.2 2.3 1.9 2.9 3.9 2.6 5.9-.5 3.4-3.2 5.3-6.8 4.8-1.4-.2-2.9-.8-3.6-1.2l.9-3.1c.6.5 2 .9 2.9 1.2 1.7.2 2.6-.6 2.8-1.7.2-1.4-.6-2.2-2-3.4-2.4-2.2-3-4.2-2.9-5.9zm33.4 12.8l-.5-.2-2.2 7.1-3.6-1.1 5.4-17.8c1.2.2 2.6.5 3.9.8 2 .6 3.6 1.4 4.3 2.8.8 1.4.8 2.6.3 4.2-.6 2-2 3.4-4.2 3.7v.2c1.1.9 1.4 2.2 1.1 4.3s-.5 4.5-.3 5.3l-3.7-1.1c-.2-.6.2-2.5.5-4.6.6-2.3.1-3.3-1-3.6zm4.2-4.8c.5-1.5.2-2.8-1.4-3.2-.3-.2-.6-.2-.9-.2l-1.7 5.3.6.2c1.7.6 2.9-.5 3.4-2.1zM270.6 458.4l-7.7-4.8-9.7-8.8-5.3-4.3-5.7-6-6.2-5.9-3.4-3.2-4.3.8-7.7-20 3.6-1.2 16.7 19.5 10.2 11.6 9.7 8.2 2.6-4.3-2.2-17.3-.2-11-2-9.3-2-8.7c-5.9-25.4 4.5-67.5 35.7-68.9.2 0 10.4-.5 10.4-.5l11.5-.5 10.2-1.2 7.9.5 10.8-.9 9.4.5 11.8 1.5 12.5 1.4 9.1 3.9 9.9 1.4 3.9 1.9 3.6 4.5 3.2 8.7 3.1 6.8 1.4 5.6.5 6.7-3.2 1.7-1.2-4.5-2-4.6-.9-5.9-2-5.1-2.5-5.9-3.6-2-2.9-1.2-1.9 1.4 1.7 1.4 4.3 2.3-3.6 1.1-5 .9-4.2 1.2-4.5 1.2-6.7 2.2-5.4 1.7-4.3.6-2.2 2 2 .9 3.9-1.2 3.7-.8h7.1l5.3-.3.9 1.5-4.2.3-4.3.2h-5.3l-3.6 1.5 2.6.8 4.5.2 7.3-.2h4.6l5.7.5 5.1 1.7 4.3 4.2-2.6.6-4.8-.9-3.4-1.7-4.2-.8-2.8.9.8 2.6-2 2.9-4 1.2-5.1-.6-2.9-1.2-.2-2.6-2-1.7-2.5-.6-.3 3.2-2.8 1.5-2-2 .6-1.5-2.2-1.2-2.5 2.9-3.4 3.6-4.5-2.6-.5-6.5 1.2-7.1 2.2-4 6.7-3.2 10.4-3.2 8.7-2.5 2.2-2.8-10.5-1.4-12.1-1.1s-13.6-.6-14.7-.5c-1.2.2-15.6.3-15.6.3l-11.3.2-11.3.6h-8l4.5 2.9 10.5 3.9 6.8 3.4 7.7 4.8-.5 39.1.2 6.2.2 5.6 5.4 2 6.7.2 5.7-.6 2.5-1.4 2-1.7 1.7-.5 1.7 1.5 1.4 2.8 2.2 1.2 2.6.6 1.2-1.2-.2-2.3-3.2-2.2-.6-2.9 2.9.2 3.6 3.7 2.2 2.2-.5 2.9-2.3 2.8-2.8 2-1.7 2.5-3.6 1.7-4.5.6-3.6.2-1.7 2.2-4 1.5-5-.9-3.6-1.1-1.2-2.2-2.8 1.1-5.4-.5-2.5-1.4-2.5-2-.3-2.2-2.3-2.2-3.2.2-5.4 1.9-6.3 1.7-5.9 3.7-6.5 4.8-3.2 4 2.9 2.5 4.3 1.4 5.4 1.9 5.3 2 8.2.6 5.1.3-.5 2.8h-4l-3.6.2-.6 1.4 1.7 3.9 3.6 2.8 4.3 1.7 4.2-.2 5.9 1.9 6.5 1.4 7.3.2 8.5-1.7 5.9-.2 4.8-1.7 4-.6 4-1.2 4.2-2.9 2.9-3.2-4 .2-8-.6-6.8.6-8.4.8-7.1.2-7.6-.3-.8-1.2h-5.9l-4.6-.9-3.7-.5 4-2.2 6.7-.2 5.1.9 5.6-.2h15.9l7.6-.3 6.7-1.4 5.7-1.2 6-2.8 4.6-1.7 2.5 2.2-2.2 4.3-2.5 3.7-4.3 5.3-4.5 3.1-4.5 3.2-5.6 4.3-7.1 2-2.3-.9 2.8-1.1 4-2.8.2-2-4.8.5-2.5.8-6.8 1.9-5.4.3-5.6.2-5.4.2h-6.3l-2.8 1.7 3.1 3.2 5.3-.2 7.1 1.5 5.7-.6 4.2.6-.3 1.4-4.8 1.2-6.8-.3-10.8-.5-9.9-3.7-5.6-4.2-5.4-4-5-4.2-3.7-3.6-3.7-.2-2.8-1.7-5.9-5.1-3.6-4-3.1-6.3 1.9-5.6 8.7-4.3 3.7-1.7 5.7-3.7 1.2-2.2 3.7-1.9 5.3-4 5.6-3.2 4-4.2.9-5.9.3-9-.6-13.3-4.6-4.5-2.8-4.3s-2.8-2.9-3.6-2.9-5.7-2.2-5.7-2.2l-7.7-2.2-6.8-3.4-5.1-2.5-6 .6-3.2 3.2-5.7 16.6-4.2 11 1.5 11 3.2 15.9 5.1 18.3 3.6 18.6 4 20.9 2.8 3.7 4.8 2.8 5.1 2.8 5.7 1.7 7.3 2.9 8.2 2 7.1 1.2 10.4 1.4 8-.2 6.8.5 7.1-1.4 9-2.5 6-2.6 8.4-2.9 7.1-3.2 4.5-2.9 5.6-3.9 2.2-4.5 2.3-4.6 2-5.3 1.2-3.7 1.5-7.3 1.1-4.5 1.9-6.7 1.5-9.3s.6-5.9.6-6.7.9-5.7.9-5.7l.8-4-.2-6.3 1.2-6.8-.2-4.5 1.2-2.5 3.2-.3-.5 4.3-.9 7.9-.6 6.5-.8 6.3-.5 9.6-.9 7.9-1.4 9.4-2.3 12.1-1.9 7.7 1.4 1.7 6.8-5.1 6.3-5.6 5.1-5.9 6.8-8.5 5-8.2 5.7-11 4.5-7.9 1.1-12.1-1.2-12.2-4.8-10.2-6.7-11.5-5.9-8.8-8.8-11.6-8.5-7.1-6.7-6-9.3-6.5-13-4-11-6.7-11.9-2.9-10.8-.9-8.5-1.2-13.9-.5-12.1.9-7.9 1.5-10.2 2.9-8.5-.5 3.2-2.9 2.5-3.6 3.1-3.1 10.4-2.5 13.3-1.7c9.9-.5 37.1-4.8 44.3 2.2l5.7 5.6 16.2 8 4.8-.3 7.9 2.8 9.4 6.3 9.4 7.4 9 9.9 11.6 10.1 5.6 7.9 3.9 10.1 3.6 5.6 2.6-1.5-1.2-6.3-2-8.2-3.2-6.3-2.8-6.8-3.6-7.1-2.8-3.1-4-7.6.8-3.6 6.2 4.5 6.7 9.6 4.3 10.4 5.1 10.8 3.2 17.5 2.2 16.2-.5 16.9-.9 9.1-1.7 8.8-1.2 7.1-4.5 5.1 1.2-6 .2-7.3 1.7-7.7-.5-4.8-3.6.8-2.8 3.9-4.8 9.7-7.4 9.6-8.7 9.1-8.2 9.3-9.1 9-7.1 5.9-8.2 5.7-5.7 3.2-8.5 3.7-6.5.9-9 3.7-11.6 2.2-9.6 2.2-10.2.5-10.8.6-9.7-2.3-11.9-2-10.4-2.5-7.3-4.3-10.1-5.4-2.7-3.4zm175.1 61.1l.5-8-.9-12.4.3-11.9.2-11.3-.2-9.3 3.7-6.7 4.8-12.5 4.3-12.8 2.9-12.1 2.6 2.5-2.9 9.4-.9 14.1 1.2 13.3 8.5 7.1 3.7-6 2.9-12.8 2-13.3.3-8.4-.5-8.5-3.6-6.7 1.2-3.2 3.1 4.8L482 428l.8 12.8-2.2 15.5-4.3 16.7-5.1 6.7-8.7-.2-1.4 3.4 1.2 29.1-.9 10.8 8.7 4.3 2.9 5.9-7.7-1.2-8.8-.6-8.5-.6-4.5 2.8-6.5 3.7-11 .3-10.8 3.6-11 3.7-11.3 1.2-10.2 1.5 1.7-2.6 61.3-25.3z" fill="currentColor"/></svg>
